<svg width="671" id="page100" xmlns:ed="https://www.edrawsoft.cn/xml/2017/SVGExtensions/" height="328" ed:hSpacing="30" xmlns="http://www.w3.org/2000/svg" viewBox="0 0 671 328" ed:vSpacing="30" ed:name="页面-1" xmlns:ev="http://www.w3.org/2001/xml-events" xmlns:xlink="http://www.w3.org/1999/xlink"><style type="text/css"><![CDATA[
g[ed\:togtopicid],g[ed\:hyperlink],g[ed\:comment],g[ed\:note] {cursor:pointer;}
g[id] {-moz-user-select: none;-ms-user-select: none;user-select: none;}
svg text::selection,svg tspan::selection{background-color: #4285f4;color: #ffffff;fill: #ffffff;}
.st4 {fill:#000000;font-family:微软雅黑;font-size:10pt}
.st3 {fill:#303030;font-family:微软雅黑;font-size:10pt}
.st2 {fill:#303030;font-family:微软雅黑;font-size:14pt;font-weight:bold}
.st5 {fill:#303030}
.st1 {fill:#ffffff;font-family:微软雅黑;font-size:18pt;font-weight:bold}
]]></style><defs/><rect width="671" height="328" x="0" y="0" fill="#ffffff"/><path id="103" ed:parentid="101" stroke-linejoin="round" transform="matrix(1,0,0,1,225.5,152)" stroke="#454545" stroke-linecap="round" d="M109.8,-30L109.8,-4.3L-103.8,-4.3C-107.1,-4.3,-109.8,-1.6,-109.8,1.7L-109.8,30" fill="none" stroke-width="3" ed:tosuperid="102"/><path id="105" ed:parentid="101" stroke-linejoin="round" transform="matrix(1,0,0,1,335.25,152)" stroke="#454545" stroke-linecap="round" d="M0,-30L0,-4.3C0,-4.3,0,-1.6,0,1.7L0,30" fill="none" stroke-width="3" ed:tosuperid="104"/><path id="107" ed:parentid="101" stroke-linejoin="round" transform="matrix(1,0,0,1,445,152)" stroke="#454545" stroke-linecap="round" d="M-109.8,-30L-109.8,-4.3L103.8,-4.3C107.1,-4.3,109.8,-1.6,109.8,1.7L109.8,30" fill="none" stroke-width="3" ed:tosuperid="106"/><path id="111" ed:parentid="102" stroke-linejoin="round" transform="matrix(1,0,0,1,91.88,247.5)" stroke="#454545" stroke-linecap="round" d="M23.9,-22.5L23.9,-1.3L-17.9,-1.3C-21.2,-1.3,-23.9,1.4,-23.9,4.7L-23.9,22.5" fill="none" ed:tosuperid="110"/><path id="113" ed:parentid="102" stroke-linejoin="round" transform="matrix(1,0,0,1,142.63,247.5)" stroke="#454545" stroke-linecap="round" d="M-26.9,-1.3L20.9,-1.3C24.2,-1.3,26.9,1.4,26.9,4.7L26.9,22.5" fill="none" ed:tosuperid="112"/><path id="115" ed:parentid="104" stroke-linejoin="round" transform="matrix(1,0,0,1,311.38,247.5)" stroke="#454545" stroke-linecap="round" d="M23.9,-22.5L23.9,-1.3L-17.9,-1.3C-21.2,-1.3,-23.9,1.4,-23.9,4.7L-23.9,22.5" fill="none" ed:tosuperid="114"/><path id="119" ed:parentid="106" stroke-linejoin="round" transform="matrix(1,0,0,1,530.88,247.5)" stroke="#454545" stroke-linecap="round" d="M23.9,-22.5L23.9,-1.3L-17.9,-1.3C-21.2,-1.3,-23.9,1.4,-23.9,4.7L-23.9,22.5" fill="none" ed:tosuperid="118"/><path id="121" ed:parentid="104" stroke-linejoin="round" transform="matrix(1,0,0,1,362.13,247.5)" stroke="#454545" stroke-linecap="round" d="M-26.9,-1.3L20.9,-1.3C24.2,-1.3,26.9,1.4,26.9,4.7L26.9,22.5" fill="none" ed:tosuperid="120"/><path id="123" ed:parentid="106" stroke-linejoin="round" transform="matrix(1,0,0,1,581.63,247.5)" stroke="#454545" stroke-linecap="round" d="M-26.9,-1.3L20.9,-1.3C24.2,-1.3,26.9,1.4,26.9,4.7L26.9,22.5" fill="none" ed:tosuperid="122"/><g id="101" ed:topictype="mainidea" transform="matrix(1,0,0,1,289.25,59)" ed:layout="bottom" ed:width="92" ed:height="63"><path stroke-linejoin="round" stroke="#00af54" d="M0,0L92,0L92,63L0,63L0,0z" fill="#00af54" stroke-width="3"/><text class="st1"><tspan x="21" y="39.45" style="white-space:pre" textLength="48">用户</tspan></text></g><g id="102" ed:parentid="101" transform="matrix(1,0,0,1,70.25,182)" ed:width="91" ed:height="43"><path stroke-linejoin="round" stroke="#454545" d="M0,0L91,0L91,43L0,43L0,0z" fill="#ffffff" stroke-width="2"/><text class="st2"><tspan x="18" y="26.95" style="white-space:pre" textLength="52">角色A</tspan></text></g><g id="104" ed:parentid="101" transform="matrix(1,0,0,1,290.25,182)" ed:width="90" ed:height="43"><path stroke-linejoin="round" stroke="#454545" d="M0,0L90,0L90,43L0,43L0,0z" fill="#ffffff" stroke-width="2"/><text class="st2"><tspan x="18" y="26.95" style="white-space:pre" textLength="51">角色B</tspan></text></g><g id="106" ed:parentid="101" transform="matrix(1,0,0,1,509.75,182)" ed:width="90" ed:height="43"><path stroke-linejoin="round" stroke="#454545" d="M0,0L90,0L90,43L0,43L0,0z" fill="#ffffff" stroke-width="2"/><text class="st2"><tspan x="18" y="26.95" style="white-space:pre" textLength="51">角色C</tspan></text></g><g id="110" ed:parentid="102" transform="matrix(1,0,0,1,21,270)" ed:width="94" ed:height="25"><path stroke-linejoin="round" stroke="#454545" d="M0,0L94,0L94,25L0,25L0,0z" fill="#ffffff"/><text class="st3"><tspan x="9" y="16.45" style="white-space:pre" textLength="73">菜单列表M1</tspan></text></g><g id="112" ed:parentid="102" transform="matrix(1,0,0,1,128.5,270)" ed:width="82" ed:height="25"><path stroke-linejoin="round" stroke="#454545" d="M0,0L82,0L82,25L0,25L0,0z" fill="#ffffff"/><text class="st3"><tspan x="9" y="16.45" style="white-space:pre" textLength="61">api列表A1</tspan></text></g><g id="114" ed:parentid="104" transform="matrix(1,0,0,1,240.5,270)" ed:width="94" ed:height="25"><path stroke-linejoin="round" stroke="#454545" d="M0,0L94,0L94,25L0,25L0,0z" fill="#ffffff"/><text class="st4"><tspan x="9" y="16.45" class="st5" style="white-space:pre" textLength="73">菜单列表M2</tspan></text></g><g id="118" ed:parentid="106" transform="matrix(1,0,0,1,460,270)" ed:width="94" ed:height="25"><path stroke-linejoin="round" stroke="#454545" d="M0,0L94,0L94,25L0,25L0,0z" fill="#ffffff"/><text class="st3"><tspan x="9" y="16.45" style="white-space:pre" textLength="73">菜单列表M3</tspan></text></g><g id="120" ed:parentid="104" transform="matrix(1,0,0,1,348,270)" ed:width="82" ed:height="25"><path stroke-linejoin="round" stroke="#454545" d="M0,0L82,0L82,25L0,25L0,0z" fill="#ffffff"/><text class="st3"><tspan x="9" y="16.45" style="white-space:pre" textLength="61">api列表A2</tspan></text></g><g id="122" ed:parentid="106" transform="matrix(1,0,0,1,567.5,270)" ed:width="82" ed:height="25"><path stroke-linejoin="round" stroke="#454545" d="M0,0L82,0L82,25L0,25L0,0z" fill="#ffffff"/><text class="st3"><tspan x="9" y="16.45" style="white-space:pre" textLength="61">api列表A3</tspan></text></g><svg xmlns="http://www.w3.org/2000/svg" width="670.5" height="318"><g style="opacity:0.15"><g transform="translate(0,0)"><g clip-path="url(#clip0)"><g clip-path="url(#clip1)"><rect width="32" height="32" transform="translate(74 160.974) rotate(-45)" fill="url(#paint0_linear)"/><path fill-opacity="0.6" d="M96.6022 153.588C97.5009 153.588 98.2295 154.316 98.2295 155.215V166.721C98.2295 167.62 97.5009 168.348 96.6022 168.348C95.7035 168.348 94.975 167.62 94.975 166.721V155.215C94.975 154.316 95.7035 153.588 96.6022 153.588Z" fill="white"/><path d="M89.0246 162.595L94.9751 168.546V166.721C94.9751 165.822 95.7037 165.094 96.6024 165.094C97.5011 165.094 98.2296 165.822 98.2296 166.721L98.2296 170.51C98.2296 172.685 95.6004 173.774 94.0628 172.236L85.3344 163.507C83.7967 161.97 84.8858 159.341 87.0603 159.341L104.18 159.341L98.2296 153.39V155.215C98.2296 156.113 97.5011 156.842 96.6024 156.842C95.7037 156.842 94.9751 156.113 94.9751 155.215L94.9751 151.426C94.9751 149.251 97.6043 148.162 99.1419 149.7L107.87 158.428C109.408 159.966 108.319 162.595 106.144 162.595H89.0246Z" fill="white"/></g></g><path d="M 118.7 147.3 L 120.1 146 L 117 143 C 116.3 142.3 115.2 141.4 114.4 140.8 L 114.4 140.7 L 116.8 141.9 L 121 143.8 L 121.8 142.9 L 119.9 138.7 L 118.7 136.4 L 118.8 136.4 C 119.4 137.1 120.3 138.3 121 139 L 124.1 142 L 125.4 140.7 L 118.1 133.4 L 116.4 135 L 118.7 139.6 C 118.9 140.2 119.3 140.9 119.6 141.5 L 119.6 141.5 C 118.9 141.2 118.3 140.9 117.7 140.6 L 113 138.4 L 111.4 140 L 118.7 147.3 Z M 127.1 139 L 128.5 137.6 L 123 132 L 121.5 133.5 L 127.1 139 Z M 121.4 131.8 C 121.9 131.4 121.9 130.7 121.4 130.2 C 120.9 129.7 120.3 129.8 119.8 130.3 C 119.3 130.8 119.2 131.4 119.7 131.9 C 120.2 132.4 120.9 132.4 121.4 131.8 Z M 130.1 136 L 131.5 134.6 L 127.7 130.7 C 127.7 129.9 127.8 129.4 128.2 129 C 128.8 128.4 129.3 128.5 130.2 129.3 L 133.5 132.6 L 134.9 131.2 L 131.5 127.7 C 130.1 126.3 128.7 126 127.5 127.2 C 126.8 128 126.6 128.9 126.6 129.9 L 126.6 129.9 L 125.7 129.3 L 124.5 130.5 L 130.1 136 Z M 138.5 127.9 C 139.1 127.3 139.3 126.4 139.3 125.6 L 139.4 125.6 L 140.1 126 L 141.2 124.9 L 133.3 117 L 131.9 118.4 L 133.8 120.4 L 134.8 121.2 C 134 121.2 133.4 121.4 132.7 122 C 131.6 123.2 131.5 125.4 133.3 127.2 C 135.2 129 137.1 129.2 138.5 127.9 Z M 137.7 126.3 C 137 127 136 126.9 134.8 125.7 C 133.7 124.6 133.6 123.5 134.3 122.9 C 134.6 122.5 135.1 122.3 135.7 122.2 L 138.2 124.7 C 138.2 125.4 138.1 125.9 137.7 126.3 Z M 142.9 123.2 L 144.2 121.9 L 141.2 118.8 C 140.5 118.1 139.3 117.2 138.6 116.6 L 138.6 116.5 L 140.9 117.7 L 145.1 119.6 L 146 118.8 L 144 114.6 L 142.9 112.3 L 142.9 112.2 C 143.6 113 144.5 114.1 145.2 114.8 L 148.2 117.9 L 149.6 116.5 L 142.2 109.2 L 140.6 110.8 L 142.8 115.5 C 143.1 116.1 143.5 116.7 143.8 117.3 L 143.7 117.4 C 143.1 117 142.5 116.7 141.9 116.4 L 137.2 114.2 L 135.6 115.8 L 142.9 123.2 Z M 152.7 113.6 C 153.4 113 153.6 112.1 153.7 111.2 L 153.7 111.2 L 154.4 111.7 L 155.6 110.5 L 152.4 107.2 C 150.8 105.6 149.2 105.5 147.8 106.9 C 146.9 107.8 146.5 108.9 146.2 110 L 147.7 110.4 C 147.9 109.6 148.2 108.9 148.7 108.4 C 149.4 107.7 150 107.9 150.6 108.4 C 148.6 110.8 148.3 112.4 149.5 113.6 C 150.4 114.6 151.8 114.6 152.7 113.6 Z M 152.1 112 C 151.7 112.4 151.2 112.5 150.7 112.1 C 150.2 111.6 150.3 110.8 151.5 109.3 L 152.6 110.4 C 152.6 111.1 152.5 111.6 152.1 112 Z M 158.8 107.6 C 160.3 106.1 160.2 104.6 159.3 103.6 C 158.2 102.6 157.1 103 156.1 103.5 C 155.2 103.8 154.6 104.2 154.2 103.8 C 153.9 103.5 153.9 103 154.4 102.5 C 154.8 102.1 155.4 101.9 156.1 101.8 L 155.8 100.3 C 155 100.4 154.1 100.7 153.3 101.5 C 152 102.7 151.9 104.2 152.9 105.2 C 153.8 106.2 155 105.8 156 105.4 C 156.8 105 157.6 104.6 158 105 C 158.3 105.4 158.3 105.9 157.8 106.4 C 157.2 106.9 156.6 107.2 155.7 107.3 L 155.9 108.9 C 156.9 108.8 158.1 108.3 158.8 107.6 Z M 163.9 102.4 C 164.4 102 164.7 101.5 164.9 101.1 L 163.6 100.2 C 163.5 100.4 163.3 100.7 163.2 100.9 C 162.7 101.4 162.1 101.4 161.5 100.7 L 159 98.3 L 160.4 96.9 L 159.2 95.8 L 157.9 97.1 L 156.4 95.6 L 155.2 96.8 L 156.5 98.5 L 155.7 99.4 L 156.8 100.5 L 157.6 99.7 L 160 102.2 C 161.3 103.4 162.6 103.8 163.9 102.4 Z M 168.3 98.1 C 169 97.4 169.4 96.5 169.6 95.5 L 168.2 95.1 C 168.1 95.8 167.8 96.3 167.4 96.8 C 166.5 97.6 165.5 97.7 164.4 96.9 L 167.9 93.5 C 167.8 93.3 167.5 93 167.2 92.8 C 165.7 91.2 163.8 90.9 162.3 92.4 C 161 93.8 160.8 96.1 162.6 97.9 C 164.4 99.8 166.7 99.6 168.3 98.1 Z M 163.4 96 C 162.8 95.1 162.9 94.1 163.4 93.5 C 164.1 92.8 165 93 165.7 93.7 L 163.4 96 Z M 171.5 94.6 L 172.9 93.1 L 169.6 89.8 C 169.1 88.7 169.4 87.9 169.8 87.5 C 170 87.3 170.2 87.1 170.5 87 L 169.5 85.5 C 169.2 85.6 169 85.7 168.7 86 C 168.1 86.6 167.9 87.6 168.2 88.7 L 168.2 88.7 L 167.1 87.9 L 165.9 89.1 L 171.5 94.6 Z" fill="#999999"/></g><g transform="translate(318,0)"><g clip-path="url(#clip0)"><g clip-path="url(#clip1)"><rect width="32" height="32" transform="translate(74 160.974) rotate(-45)" fill="url(#paint0_linear)"/><path fill-opacity="0.6" d="M96.6022 153.588C97.5009 153.588 98.2295 154.316 98.2295 155.215V166.721C98.2295 167.62 97.5009 168.348 96.6022 168.348C95.7035 168.348 94.975 167.62 94.975 166.721V155.215C94.975 154.316 95.7035 153.588 96.6022 153.588Z" fill="white"/><path d="M89.0246 162.595L94.9751 168.546V166.721C94.9751 165.822 95.7037 165.094 96.6024 165.094C97.5011 165.094 98.2296 165.822 98.2296 166.721L98.2296 170.51C98.2296 172.685 95.6004 173.774 94.0628 172.236L85.3344 163.507C83.7967 161.97 84.8858 159.341 87.0603 159.341L104.18 159.341L98.2296 153.39V155.215C98.2296 156.113 97.5011 156.842 96.6024 156.842C95.7037 156.842 94.9751 156.113 94.9751 155.215L94.9751 151.426C94.9751 149.251 97.6043 148.162 99.1419 149.7L107.87 158.428C109.408 159.966 108.319 162.595 106.144 162.595H89.0246Z" fill="white"/></g></g><path d="M 118.7 147.3 L 120.1 146 L 117 143 C 116.3 142.3 115.2 141.4 114.4 140.8 L 114.4 140.7 L 116.8 141.9 L 121 143.8 L 121.8 142.9 L 119.9 138.7 L 118.7 136.4 L 118.8 136.4 C 119.4 137.1 120.3 138.3 121 139 L 124.1 142 L 125.4 140.7 L 118.1 133.4 L 116.4 135 L 118.7 139.6 C 118.9 140.2 119.3 140.9 119.6 141.5 L 119.6 141.5 C 118.9 141.2 118.3 140.9 117.7 140.6 L 113 138.4 L 111.4 140 L 118.7 147.3 Z M 127.1 139 L 128.5 137.6 L 123 132 L 121.5 133.5 L 127.1 139 Z M 121.4 131.8 C 121.9 131.4 121.9 130.7 121.4 130.2 C 120.9 129.7 120.3 129.8 119.8 130.3 C 119.3 130.8 119.2 131.4 119.7 131.9 C 120.2 132.4 120.9 132.4 121.4 131.8 Z M 130.1 136 L 131.5 134.6 L 127.7 130.7 C 127.7 129.9 127.8 129.4 128.2 129 C 128.8 128.4 129.3 128.5 130.2 129.3 L 133.5 132.6 L 134.9 131.2 L 131.5 127.7 C 130.1 126.3 128.7 126 127.5 127.2 C 126.8 128 126.6 128.9 126.6 129.9 L 126.6 129.9 L 125.7 129.3 L 124.5 130.5 L 130.1 136 Z M 138.5 127.9 C 139.1 127.3 139.3 126.4 139.3 125.6 L 139.4 125.6 L 140.1 126 L 141.2 124.9 L 133.3 117 L 131.9 118.4 L 133.8 120.4 L 134.8 121.2 C 134 121.2 133.4 121.4 132.7 122 C 131.6 123.2 131.5 125.4 133.3 127.2 C 135.2 129 137.1 129.2 138.5 127.9 Z M 137.7 126.3 C 137 127 136 126.9 134.8 125.7 C 133.7 124.6 133.6 123.5 134.3 122.9 C 134.6 122.5 135.1 122.3 135.7 122.2 L 138.2 124.7 C 138.2 125.4 138.1 125.9 137.7 126.3 Z M 142.9 123.2 L 144.2 121.9 L 141.2 118.8 C 140.5 118.1 139.3 117.2 138.6 116.6 L 138.6 116.5 L 140.9 117.7 L 145.1 119.6 L 146 118.8 L 144 114.6 L 142.9 112.3 L 142.9 112.2 C 143.6 113 144.5 114.1 145.2 114.8 L 148.2 117.9 L 149.6 116.5 L 142.2 109.2 L 140.6 110.8 L 142.8 115.5 C 143.1 116.1 143.5 116.7 143.8 117.3 L 143.7 117.4 C 143.1 117 142.5 116.7 141.9 116.4 L 137.2 114.2 L 135.6 115.8 L 142.9 123.2 Z M 152.7 113.6 C 153.4 113 153.6 112.1 153.7 111.2 L 153.7 111.2 L 154.4 111.7 L 155.6 110.5 L 152.4 107.2 C 150.8 105.6 149.2 105.5 147.8 106.9 C 146.9 107.8 146.5 108.9 146.2 110 L 147.7 110.4 C 147.9 109.6 148.2 108.9 148.7 108.4 C 149.4 107.7 150 107.9 150.6 108.4 C 148.6 110.8 148.3 112.4 149.5 113.6 C 150.4 114.6 151.8 114.6 152.7 113.6 Z M 152.1 112 C 151.7 112.4 151.2 112.5 150.7 112.1 C 150.2 111.6 150.3 110.8 151.5 109.3 L 152.6 110.4 C 152.6 111.1 152.5 111.6 152.1 112 Z M 158.8 107.6 C 160.3 106.1 160.2 104.6 159.3 103.6 C 158.2 102.6 157.1 103 156.1 103.5 C 155.2 103.8 154.6 104.2 154.2 103.8 C 153.9 103.5 153.9 103 154.4 102.5 C 154.8 102.1 155.4 101.9 156.1 101.8 L 155.8 100.3 C 155 100.4 154.1 100.7 153.3 101.5 C 152 102.7 151.9 104.2 152.9 105.2 C 153.8 106.2 155 105.8 156 105.4 C 156.8 105 157.6 104.6 158 105 C 158.3 105.4 158.3 105.9 157.8 106.4 C 157.2 106.9 156.6 107.2 155.7 107.3 L 155.9 108.9 C 156.9 108.8 158.1 108.3 158.8 107.6 Z M 163.9 102.4 C 164.4 102 164.7 101.5 164.9 101.1 L 163.6 100.2 C 163.5 100.4 163.3 100.7 163.2 100.9 C 162.7 101.4 162.1 101.4 161.5 100.7 L 159 98.3 L 160.4 96.9 L 159.2 95.8 L 157.9 97.1 L 156.4 95.6 L 155.2 96.8 L 156.5 98.5 L 155.7 99.4 L 156.8 100.5 L 157.6 99.7 L 160 102.2 C 161.3 103.4 162.6 103.8 163.9 102.4 Z M 168.3 98.1 C 169 97.4 169.4 96.5 169.6 95.5 L 168.2 95.1 C 168.1 95.8 167.8 96.3 167.4 96.8 C 166.5 97.6 165.5 97.7 164.4 96.9 L 167.9 93.5 C 167.8 93.3 167.5 93 167.2 92.8 C 165.7 91.2 163.8 90.9 162.3 92.4 C 161 93.8 160.8 96.1 162.6 97.9 C 164.4 99.8 166.7 99.6 168.3 98.1 Z M 163.4 96 C 162.8 95.1 162.9 94.1 163.4 93.5 C 164.1 92.8 165 93 165.7 93.7 L 163.4 96 Z M 171.5 94.6 L 172.9 93.1 L 169.6 89.8 C 169.1 88.7 169.4 87.9 169.8 87.5 C 170 87.3 170.2 87.1 170.5 87 L 169.5 85.5 C 169.2 85.6 169 85.7 168.7 86 C 168.1 86.6 167.9 87.6 168.2 88.7 L 168.2 88.7 L 167.1 87.9 L 165.9 89.1 L 171.5 94.6 Z" fill="#999999"/></g><defs><linearGradient x2="-6.84284" id="paint0_linear" x1="32" y1="40.1696" y2="-1.8431" gradientUnits="userSpaceOnUse"><stop stop-color="#008899"/><stop stop-color="#66FF66" offset="1"/></linearGradient><clipPath id="clip0"><rect width="32" height="32" transform="translate(74 160.974) rotate(-45)" fill="white"/></clipPath><clipPath id="clip1"><rect width="32" height="32" transform="rotate(-45 74 160.974)" x="74" y="160.974" rx="7.30097" fill="white"/></clipPath></defs></g><g width="166.25" transform="translate(504.25,0), scale(0.475)" height="38" style="transform-origin: 0% 0%;"><path d="M0 0H350V80H20C8.9543 80 0 71.0457 0 60V0Z" fill="#14AF78"/><path fill-opacity="0.72" d="M65.01 35.544C64.668 34.878 63.858 33.852 63.138 33.096L62.022 33.798C62.706 34.572 63.48 35.652 63.822 36.354L65.01 35.544ZM53.886 35.796C53.31 35.076 52.104 33.96 51.168 33.204L50.07 34.212C51.006 35.04 52.194 36.174 52.716 36.948L53.886 35.796ZM52.896 45.984V38.442H49.008V40.044H51.294V46.038C51.294 46.812 50.772 47.352 50.412 47.568C50.7 47.91 51.096 48.612 51.222 49.026C51.528 48.684 52.032 48.342 55.146 46.272C55.002 45.948 54.804 45.282 54.696 44.85L52.896 45.984ZM58.08 45.786V42.006H59.61V40.458H54.858V42.006H56.55V46.182C55.794 46.398 55.11 46.578 54.534 46.704L54.984 48.27C56.496 47.82 58.422 47.262 60.276 46.722L60.042 45.246L58.08 45.786ZM65.226 38.082V36.48H61.698C61.662 35.364 61.644 34.212 61.644 33.006H59.952C59.97 34.212 60.006 35.364 60.042 36.48H54.3V38.082H60.096C60.42 44.904 61.248 49.296 63.462 49.332C64.164 49.332 64.992 48.612 65.406 45.426C65.118 45.282 64.362 44.832 64.074 44.49C63.984 46.164 63.804 47.118 63.516 47.118C62.634 47.064 62.022 43.266 61.77 38.082H65.226ZM75.972 42.492V39.828H80.328V42.492H75.972ZM70.32 42.492C70.374 41.826 70.392 41.16 70.392 40.548V39.828H74.298V42.492H70.32ZM74.298 35.724V38.262H70.392V35.724H74.298ZM80.328 38.262H75.972V35.724H80.328V38.262ZM82.002 34.122H68.736V40.53C68.736 43.068 68.556 46.254 66.594 48.432C66.972 48.63 67.656 49.206 67.908 49.53C69.222 48.072 69.87 46.056 70.158 44.076H74.298V49.224H75.972V44.076H80.328V47.298C80.328 47.64 80.202 47.748 79.878 47.748C79.536 47.748 78.348 47.766 77.196 47.712C77.412 48.144 77.682 48.882 77.754 49.332C79.41 49.35 80.454 49.314 81.12 49.044C81.768 48.792 82.002 48.288 82.002 47.316V34.122ZM87.384 39.216H91.956V37.74H90.534V32.88H89.022V37.74H87.384V33.312H85.854V40.314C85.854 42.942 85.71 46.236 84.576 48.468C84.954 48.684 85.512 49.188 85.782 49.494C86.808 47.748 87.186 45.39 87.312 43.05H89.436V49.404H90.948V41.556H87.366C87.384 41.124 87.384 40.71 87.384 40.296V39.216ZM99.048 39.504C98.688 41.286 98.13 42.852 97.374 44.184C96.618 42.798 96.06 41.214 95.664 39.504H99.048ZM99.804 37.938L99.516 37.992H94.242V35.4C96.6 35.22 99.156 34.914 101.082 34.482L100.074 33.042C98.22 33.492 95.25 33.87 92.64 34.05V40.134C92.64 42.744 92.478 46.272 91.146 48.612C91.542 48.828 92.172 49.278 92.478 49.566C94.026 46.974 94.242 43.158 94.242 40.134V39.504H94.35C94.818 41.79 95.502 43.842 96.456 45.552C95.556 46.704 94.512 47.568 93.324 48.126C93.666 48.432 94.098 49.062 94.314 49.494C95.484 48.864 96.492 48.054 97.392 47.01C98.166 48.036 99.084 48.864 100.164 49.494C100.416 49.044 100.92 48.432 101.298 48.144C100.146 47.55 99.174 46.722 98.364 45.678C99.57 43.77 100.398 41.304 100.794 38.19L99.804 37.938Z" fill="white"/><g clip-path="url(#clip2)"><g clip-path="url(#clip3)"><rect width="48" height="48" transform="translate(116 16)" fill="url(#paint1_linear)"/><path fill-opacity="0.6" d="M147.808 32.1387C148.761 33.0919 148.761 34.6374 147.808 35.5906L135.604 47.7949C134.65 48.7481 133.105 48.7481 132.152 47.7949C131.198 46.8417 131.198 45.2962 132.152 44.343L144.356 32.1387C145.309 31.1855 146.855 31.1855 147.808 32.1387Z" fill="white"/><path d="M130.216 33.655V46.278L132.152 44.3427C133.105 43.3895 134.65 43.3895 135.604 44.3427C136.557 45.2959 136.557 46.8414 135.604 47.7946L131.585 51.8133C129.278 54.1198 125.335 52.4863 125.335 49.2244V30.7087C125.335 27.4468 129.278 25.8133 131.585 28.1197L149.743 46.2781V33.655L147.808 35.5904C146.855 36.5436 145.309 36.5436 144.356 35.5904C143.403 34.6371 143.403 33.0917 144.356 32.1385L148.375 28.1197C150.681 25.8133 154.625 27.4468 154.625 30.7087V49.2244C154.625 52.4863 150.681 54.1198 148.375 51.8133L130.216 33.655Z" fill="white"/></g></g><path d="M175.002 50H177.928V43.202C177.928 41.662 177.664 39.396 177.51 37.856H177.598L178.896 41.684L181.426 48.526H183.296L185.804 41.684L187.124 37.856H187.234C187.058 39.396 186.816 41.662 186.816 43.202V50H189.786V33.698H186.178L183.472 41.332C183.12 42.344 182.834 43.422 182.482 44.456H182.372C182.042 43.422 181.734 42.344 181.382 41.332L178.61 33.698H175.002V50ZM193.515 50H196.749V37.68H193.515V50ZM195.143 35.7C196.243 35.7 197.013 34.996 197.013 33.918C197.013 32.862 196.243 32.158 195.143 32.158C194.021 32.158 193.251 32.862 193.251 33.918C193.251 34.996 194.021 35.7 195.143 35.7ZM200.197 50H203.431V41.53C204.333 40.628 204.971 40.144 205.983 40.144C207.193 40.144 207.721 40.804 207.721 42.718V50H210.955V42.322C210.955 39.22 209.811 37.372 207.149 37.372C205.477 37.372 204.223 38.252 203.145 39.308H203.079L202.837 37.68H200.197V50ZM218.625 50.308C219.901 50.308 221.133 49.604 222.035 48.724H222.123L222.365 50H224.983V32.444H221.771V36.778L221.881 38.714C221.001 37.9 220.143 37.372 218.757 37.372C216.095 37.372 213.587 39.836 213.587 43.84C213.587 47.888 215.567 50.308 218.625 50.308ZM219.461 47.646C217.833 47.646 216.909 46.37 216.909 43.818C216.909 41.354 218.075 40.034 219.461 40.034C220.231 40.034 221.023 40.276 221.771 40.958V46.37C221.045 47.294 220.319 47.646 219.461 47.646ZM228.713 50H231.639V43.202C231.639 41.662 231.375 39.396 231.221 37.856H231.309L232.607 41.684L235.137 48.526H237.007L239.515 41.684L240.835 37.856H240.945C240.769 39.396 240.527 41.662 240.527 43.202V50H243.497V33.698H239.889L237.183 41.332C236.831 42.344 236.545 43.422 236.193 44.456H236.083C235.753 43.422 235.445 42.344 235.093 41.332L232.321 33.698H228.713V50ZM250.262 50.308C251.67 50.308 252.902 49.604 253.98 48.68H254.068L254.288 50H256.928V42.806C256.928 39.242 255.322 37.372 252.198 37.372C250.262 37.372 248.502 38.098 247.05 39L248.216 41.134C249.36 40.474 250.46 39.968 251.604 39.968C253.122 39.968 253.65 40.892 253.716 42.102C248.744 42.63 246.61 44.016 246.61 46.656C246.61 48.746 248.062 50.308 250.262 50.308ZM251.318 47.778C250.372 47.778 249.69 47.36 249.69 46.392C249.69 45.292 250.702 44.456 253.716 44.082V46.568C252.924 47.338 252.242 47.778 251.318 47.778ZM263.744 50.308C266.956 50.308 268.65 48.57 268.65 46.414C268.65 44.126 266.846 43.312 265.218 42.696C263.92 42.212 262.776 41.882 262.776 40.98C262.776 40.276 263.304 39.792 264.426 39.792C265.328 39.792 266.186 40.21 267.066 40.848L268.518 38.89C267.506 38.12 266.12 37.372 264.338 37.372C261.522 37.372 259.74 38.934 259.74 41.134C259.74 43.202 261.478 44.148 263.04 44.742C264.338 45.248 265.614 45.666 265.614 46.59C265.614 47.36 265.064 47.888 263.832 47.888C262.688 47.888 261.632 47.404 260.532 46.546L259.058 48.57C260.29 49.582 262.094 50.308 263.744 50.308ZM275.111 50.308C276.189 50.308 277.047 50.066 277.707 49.846L277.179 47.492C276.849 47.624 276.365 47.756 275.969 47.756C274.869 47.756 274.297 47.096 274.297 45.688V40.232H277.333V37.68H274.297V34.358H271.613L271.239 37.68L269.325 37.834V40.232H271.063V45.688C271.063 48.438 272.185 50.308 275.111 50.308ZM284.799 50.308C286.317 50.308 287.879 49.78 289.089 48.944L287.989 46.964C287.109 47.514 286.229 47.822 285.217 47.822C283.391 47.822 282.071 46.766 281.807 44.742H289.397C289.485 44.456 289.551 43.862 289.551 43.246C289.551 39.858 287.791 37.372 284.403 37.372C281.477 37.372 278.661 39.858 278.661 43.84C278.661 47.91 281.345 50.308 284.799 50.308ZM281.763 42.586C282.005 40.804 283.149 39.88 284.447 39.88C286.031 39.88 286.779 40.936 286.779 42.586H281.763ZM292.215 50H295.449V42.652C296.131 40.87 297.297 40.232 298.265 40.232C298.771 40.232 299.123 40.298 299.563 40.43L300.113 37.636C299.739 37.482 299.343 37.372 298.661 37.372C297.385 37.372 296.065 38.252 295.163 39.858H295.097L294.855 37.68H292.215V50Z" fill="white"/><defs><linearGradient x2="-10.2643" id="paint1_linear" x1="48" y1="60.2544" y2="-2.76465" gradientUnits="userSpaceOnUse"><stop stop-color="#008899"/><stop stop-color="#66FF66" offset="1"/></linearGradient><clipPath id="clip2"><rect width="48" height="48" transform="translate(116 16)" fill="white"/></clipPath><clipPath id="clip3"><rect width="48" height="48" x="116" y="16" rx="10.9515" fill="white"/></clipPath></defs></g></svg></svg>