<?xml version="1.0" standalone="no"?><!DOCTYPE svg PUBLIC "-//W3C//DTD SVG 1.1//EN" "http://www.w3.org/Graphics/SVG/1.1/DTD/svg11.dtd"><svg height="512" node-id="1" sillyvg="true" template-height="512" template-width="512" version="1.1" viewBox="0 0 512 512" width="512" xmlns="http://www.w3.org/2000/svg" xmlns:xlink="http://www.w3.org/1999/xlink"><defs node-id="39"><clipPath id="mask-2" node-id="15"><path d="M 339.80 309.87 L 390.06 309.87 L 390.06 368.64 L 339.80 368.64 Z" fill="#000000" fill-rule="evenodd" node-id="44" stroke="none" target-height="58.77002" target-width="50.26001" target-x="339.8" target-y="309.87"></path></clipPath><clipPath id="mask-4" node-id="34"><path d="M 247.92 143.40 L 270.00 143.40 L 270.00 157.04 L 247.92 157.04 Z" fill="#000000" fill-rule="evenodd" node-id="51" stroke="none" target-height="13.639999" target-width="22.080002" target-x="247.92" target-y="143.4"></path></clipPath></defs><path d="M 0.00 0.00 L 512.00 0.00 L 512.00 512.00 L 0.00 512.00 Z" fill="#c3ecfe" fill-rule="evenodd" id="矩形" node-id="8" stroke="none" target-height="512" target-width="512" target-x="0" target-y="0"></path><g node-id="89"><path d="M 230.78 447.60 L 278.80 447.60 L 278.80 384.48 L 230.78 384.48 Z" fill="#ffbbba" fill-rule="evenodd" group-id="1" id="Fill-1" node-id="10" stroke="none" target-height="63.119995" target-width="48.01999" target-x="230.78" target-y="384.48"></path><path d="M 230.57 415.74 L 237.95 417.46 L 244.68 418.62 L 250.82 419.29 L 256.43 419.50 L 262.14 419.26 L 267.72 418.56 L 273.20 417.38 L 278.59 415.74 L 278.59 352.62 L 230.57 352.62 L 230.57 415.74 Z" fill="#fb918d" fill-rule="evenodd" group-id="1" id="Fill-1" node-id="11" stroke="none" target-height="66.880005" target-width="48.01999" target-x="230.57" target-y="352.62"></path><g node-id="90"><path d="M 172.26 339.25 L 172.02 343.30 L 171.36 347.10 L 170.29 350.69 L 168.80 354.13 L 167.01 357.23 L 164.90 360.03 L 162.46 362.54 L 159.80 364.63 L 156.91 366.33 L 153.82 367.59 L 150.57 368.36 L 147.13 368.64 L 143.69 368.36 L 140.44 367.59 L 137.35 366.33 L 134.46 364.63 L 131.80 362.54 L 129.36 360.03 L 127.25 357.23 L 125.46 354.13 L 123.97 350.69 L 122.90 347.10 L 122.24 343.30 L 122.00 339.25 L 122.24 335.20 L 122.90 331.40 L 123.97 327.81 L 125.46 324.38 L 127.25 321.27 L 129.36 318.47 L 131.80 315.96 L 134.46 313.87 L 137.35 312.18 L 140.44 310.91 L 143.69 310.14 L 147.13 309.87 L 150.57 310.14 L 153.82 310.91 L 156.91 312.18 L 159.80 313.87 L 162.46 315.96 L 164.90 318.47 L 167.01 321.27 L 168.80 324.38 L 170.29 327.81 L 171.36 331.40 L 172.02 335.20 L 172.26 339.25" fill="#ffbbba" fill-rule="evenodd" group-id="1,2" id="Fill-2" node-id="13" stroke="none" target-height="58.77002" target-width="50.259995" target-x="122" target-y="309.87"></path><g node-id="91"><g clip-path="url(#mask-2)" group-id="1,2,3" node-id="66"><path d="M 390.06 339.25 L 389.82 343.30 L 389.16 347.10 L 388.09 350.69 L 386.61 354.13 L 384.81 357.23 L 382.70 360.03 L 380.26 362.54 L 377.61 364.63 L 374.72 366.33 L 371.62 367.59 L 368.37 368.36 L 364.93 368.64 L 361.50 368.36 L 358.25 367.59 L 355.15 366.33 L 352.26 364.63 L 349.60 362.54 L 347.16 360.03 L 345.05 357.23 L 343.26 354.13 L 341.78 350.69 L 340.71 347.10 L 340.04 343.30 L 339.80 339.25 L 340.04 335.20 L 340.71 331.40 L 341.78 327.81 L 343.26 324.38 L 345.05 321.27 L 347.16 318.47 L 349.60 315.96 L 352.26 313.87 L 355.15 312.18 L 358.25 310.91 L 361.50 310.14 L 364.93 309.87 L 368.37 310.14 L 371.62 310.91 L 374.72 312.18 L 377.61 313.87 L 380.26 315.96 L 382.70 318.47 L 384.81 321.27 L 386.61 324.38 L 388.09 327.81 L 389.16 331.40 L 389.82 335.20 L 390.06 339.25" fill="#ffbbba" fill-rule="evenodd" group-id="1,2,3,5" id="Fill-6" node-id="18" stroke="none" target-height="58.77002" target-width="50.26001" target-x="339.8" target-y="309.87"></path></g></g><path d="M 255.86 411.55 L 252.17 411.40 L 247.74 410.93 L 242.46 410.05 L 237.27 408.92 L 231.62 407.41 L 225.49 405.49 L 219.47 403.31 L 213.31 400.75 L 207.00 397.79 L 200.86 394.51 L 194.88 390.87 L 189.04 386.85 L 183.50 382.45 L 178.38 377.71 L 173.67 372.59 L 170.46 368.49 L 167.60 364.19 L 165.10 359.67 L 162.94 354.92 L 161.23 350.03 L 159.99 344.90 L 159.21 339.48 L 158.91 333.75 L 158.96 323.51 L 159.19 312.38 L 159.73 301.05 L 160.72 289.33 L 161.69 281.52 L 162.98 273.75 L 164.58 266.02 L 166.57 258.39 L 168.98 251.00 L 171.82 243.82 L 174.28 238.59 L 177.05 233.57 L 180.12 228.75 L 183.51 224.13 L 187.21 219.79 L 191.29 215.72 L 195.78 211.91 L 200.70 208.35 L 205.83 205.24 L 211.46 202.45 L 217.66 199.99 L 224.46 197.85 L 231.23 196.27 L 238.68 195.09 L 246.87 194.33 L 255.86 194.05 L 264.85 194.33 L 273.03 195.09 L 280.48 196.27 L 287.25 197.85 L 294.05 199.99 L 300.25 202.45 L 305.89 205.24 L 311.01 208.35 L 315.93 211.91 L 320.42 215.72 L 324.51 219.79 L 328.21 224.13 L 331.59 228.75 L 334.67 233.57 L 337.43 238.59 L 339.89 243.82 L 342.73 251.00 L 345.15 258.39 L 347.13 266.02 L 348.74 273.75 L 350.02 281.52 L 350.99 289.33 L 351.99 301.05 L 352.53 312.38 L 352.76 323.51 L 352.80 333.75 L 352.51 339.48 L 351.73 344.90 L 350.48 350.03 L 348.77 354.92 L 346.61 359.67 L 344.11 364.19 L 341.26 368.49 L 338.04 372.59 L 333.33 377.71 L 328.21 382.45 L 322.67 386.85 L 316.84 390.87 L 310.86 394.51 L 304.71 397.79 L 298.40 400.75 L 292.24 403.31 L 286.22 405.49 L 280.09 407.41 L 274.45 408.92 L 269.25 410.05 L 263.97 410.93 L 259.54 411.40 L 255.86 411.55 Z" fill="#ffbbba" fill-rule="evenodd" group-id="1,2" id="Fill-10" node-id="19" stroke="none" target-height="217.49998" target-width="193.88998" target-x="158.91" target-y="194.05"></path><path d="M 255.86 404.55 L 252.17 404.40 L 247.74 403.93 L 242.46 403.05 L 237.27 401.92 L 231.62 400.41 L 225.49 398.49 L 219.47 396.31 L 213.31 393.75 L 207.00 390.79 L 200.86 387.51 L 194.88 383.87 L 189.04 379.85 L 183.50 375.45 L 178.38 370.71 L 173.67 365.59 L 170.46 361.49 L 167.60 357.19 L 165.10 352.67 L 162.94 347.92 L 161.23 343.03 L 159.99 337.90 L 159.21 332.48 L 158.91 326.75 L 158.96 316.51 L 159.19 305.38 L 159.73 294.05 L 160.72 282.33 L 161.69 274.52 L 162.98 266.75 L 164.58 259.02 L 166.57 251.39 L 168.98 244.00 L 171.82 236.82 L 174.28 231.59 L 177.05 226.57 L 180.12 221.75 L 183.51 217.13 L 187.21 212.79 L 191.29 208.72 L 195.78 204.91 L 200.70 201.35 L 205.83 198.24 L 211.46 195.45 L 217.66 192.99 L 224.46 190.85 L 231.23 189.27 L 238.68 188.09 L 246.87 187.33 L 255.86 187.05 L 264.85 187.33 L 273.03 188.09 L 280.48 189.27 L 287.25 190.85 L 294.05 192.99 L 300.25 195.45 L 305.89 198.24 L 311.01 201.35 L 315.93 204.91 L 320.42 208.72 L 324.51 212.79 L 328.21 217.13 L 331.59 221.75 L 334.67 226.57 L 337.43 231.59 L 339.89 236.82 L 342.73 244.00 L 345.15 251.39 L 347.13 259.02 L 348.74 266.75 L 350.02 274.52 L 350.99 282.33 L 351.99 294.05 L 352.53 305.38 L 352.76 316.51 L 352.80 326.75 L 352.51 332.48 L 351.73 337.90 L 350.48 343.03 L 348.77 347.92 L 346.61 352.67 L 344.11 357.19 L 341.26 361.49 L 338.04 365.59 L 333.33 370.71 L 328.21 375.45 L 322.67 379.85 L 316.84 383.87 L 310.86 387.51 L 304.71 390.79 L 298.40 393.75 L 292.24 396.31 L 286.22 398.49 L 280.09 400.41 L 274.45 401.92 L 269.25 403.05 L 263.97 403.93 L 259.54 404.40 L 255.86 404.55 Z" fill="#ffd5d6" fill-rule="evenodd" group-id="1,2" id="Fill-10" node-id="20" stroke="none" target-height="217.49998" target-width="193.88998" target-x="158.91" target-y="187.05"></path><path d="M 263.28 335.00 L 263.10 335.71 L 262.60 336.35 L 261.69 336.92 L 260.05 337.51 L 257.90 337.88 L 255.64 338.00 L 253.37 337.88 L 251.22 337.51 L 249.58 336.92 L 248.67 336.35 L 248.18 335.71 L 247.99 335.00 L 248.27 332.88 L 249.04 331.07 L 250.23 329.53 L 251.78 328.36 L 253.59 327.62 L 255.64 327.36 L 257.69 327.62 L 259.50 328.36 L 261.04 329.53 L 262.24 331.07 L 263.00 332.88 L 263.28 335.00" fill="#e8b39f" fill-rule="evenodd" group-id="1,2" id="Fill-16" node-id="21" stroke="none" target-height="10.640015" target-width="15.289993" target-x="247.99" target-y="327.36"></path><path d="M 332.63 511.21 L 176.95 511.21 L 177.21 505.10 L 177.93 499.20 L 179.09 493.49 L 180.70 487.95 L 182.76 482.53 L 185.18 477.36 L 187.98 472.44 L 191.15 467.74 L 194.68 463.30 L 198.51 459.17 L 202.64 455.34 L 207.08 451.81 L 211.78 448.63 L 216.70 445.84 L 221.87 443.41 L 227.29 441.36 L 232.83 439.75 L 238.54 438.58 L 244.44 437.87 L 250.55 437.61 L 259.02 437.61 L 265.13 437.87 L 271.04 438.58 L 276.75 439.75 L 282.29 441.36 L 287.71 443.41 L 292.87 445.84 L 297.79 448.63 L 302.49 451.81 L 306.94 455.34 L 311.07 459.17 L 314.89 463.30 L 318.42 467.74 L 321.60 472.44 L 324.40 477.36 L 326.82 482.53 L 328.87 487.95 L 330.48 493.49 L 331.65 499.20 L 332.37 505.10 L 332.63 511.21" fill="#ffbbba" fill-rule="evenodd" group-id="1,2" id="Fill-18" node-id="22" stroke="none" target-height="73.600006" target-width="155.68001" target-x="176.95" target-y="437.61"></path><path d="M 291.11 444.60 L 288.95 448.90 L 286.31 452.81 L 283.18 456.37 L 279.62 459.50 L 275.71 462.14 L 271.42 464.30 L 268.04 465.54 L 264.53 466.45 L 260.86 467.00 L 257.01 467.21 L 253.01 466.98 L 249.20 466.38 L 245.57 465.40 L 242.09 464.06 L 238.75 462.36 L 235.65 460.37 L 232.79 458.09 L 230.13 455.51 L 227.75 452.68 L 225.67 449.64 L 223.89 446.39 L 222.40 442.90 L 217.43 445.18 L 212.69 447.78 L 208.19 450.71 L 203.91 453.97 L 199.87 457.53 L 196.12 461.35 L 192.65 465.43 L 189.46 469.79 L 186.60 474.36 L 184.09 479.14 L 181.91 484.12 L 180.07 489.33 L 178.63 494.64 L 177.59 500.10 L 176.95 505.73 L 176.72 511.54 L 176.72 511.80 L 333.12 511.80 L 333.12 511.54 L 332.91 506.01 L 332.32 500.64 L 331.37 495.42 L 330.05 490.34 L 328.37 485.35 L 326.37 480.55 L 324.07 475.95 L 321.44 471.52 L 317.48 465.91 L 313.06 460.74 L 308.17 455.97 L 302.86 451.67 L 297.18 447.89 L 291.11 444.60" fill="#1c2b40" fill-rule="evenodd" group-id="1,2" id="Fill-20" node-id="23" stroke="none" target-height="68.899994" target-width="156.4" target-x="176.72" target-y="442.9"></path><path d="M 209.23 277.21 L 209.90 275.76 L 211.02 274.73 L 212.44 274.18 L 214.04 274.23 L 231.54 278.27 L 233.00 278.94 L 234.03 280.05 L 234.57 281.47 L 234.52 283.07 L 233.85 284.53 L 232.74 285.56 L 231.32 286.10 L 229.72 286.06 L 212.21 282.02 L 210.76 281.35 L 209.73 280.23 L 209.19 278.81 L 209.23 277.21 Z" fill="#4d4437" fill-rule="nonzero" group-id="1,2" id="Stroke-22" node-id="24" stroke="none" target-height="11.920013" target-width="25.380005" target-x="209.19" target-y="274.18"></path><path d="M 302.73 277.17 L 302.79 278.77 L 302.26 280.20 L 301.24 281.33 L 299.79 282.01 L 296.55 282.77 L 283.23 285.82 L 282.28 286.05 L 280.68 286.11 L 279.25 285.57 L 278.13 284.55 L 277.45 283.09 L 277.40 281.49 L 277.93 280.07 L 278.96 278.95 L 280.41 278.27 L 285.24 277.15 L 295.48 274.81 L 297.89 274.24 L 299.49 274.18 L 300.91 274.71 L 302.04 275.73 L 302.73 277.17 Z" fill="#4d4437" fill-rule="nonzero" group-id="1,2" id="Stroke-24" node-id="25" stroke="none" target-height="11.929993" target-width="25.390015" target-x="277.4" target-y="274.18"></path><path d="M 234.22 312.33 L 234.06 314.06 L 233.62 315.65 L 232.92 317.11 L 231.44 319.03 L 229.52 320.51 L 228.06 321.21 L 226.47 321.65 L 224.74 321.81 L 223.01 321.65 L 221.43 321.21 L 219.96 320.51 L 218.04 319.03 L 216.56 317.11 L 215.86 315.65 L 215.43 314.06 L 215.27 312.33 L 215.43 310.60 L 215.86 309.02 L 216.56 307.55 L 218.04 305.63 L 219.96 304.15 L 221.43 303.45 L 223.01 303.02 L 224.74 302.86 L 226.47 303.02 L 228.06 303.45 L 229.52 304.15 L 231.44 305.63 L 232.92 307.55 L 233.62 309.02 L 234.06 310.60 L 234.22 312.33" fill="#000000" fill-rule="evenodd" group-id="1,2" id="Fill-26" node-id="26" stroke="none" target-height="18.950012" target-width="18.949997" target-x="215.27" target-y="302.86"></path><path d="M 296.45 312.33 L 296.28 314.06 L 295.85 315.65 L 295.15 317.11 L 293.67 319.03 L 291.75 320.51 L 290.29 321.21 L 288.70 321.65 L 286.97 321.81 L 285.24 321.65 L 283.66 321.21 L 282.19 320.51 L 280.27 319.03 L 278.79 317.11 L 278.09 315.65 L 277.66 314.06 L 277.50 312.33 L 277.66 310.60 L 278.09 309.02 L 278.79 307.55 L 280.27 305.63 L 282.19 304.15 L 283.66 303.45 L 285.24 303.02 L 286.97 302.86 L 288.70 303.02 L 290.29 303.45 L 291.75 304.15 L 293.67 305.63 L 295.15 307.55 L 295.85 309.02 L 296.28 310.60 L 296.45 312.33" fill="#000000" fill-rule="evenodd" group-id="1,2" id="Fill-28" node-id="27" stroke="none" target-height="18.950012" target-width="18.950012" target-x="277.5" target-y="302.86"></path><path d="M 269.64 344.91 L 270.01 344.20 L 270.60 343.71 L 271.32 343.48 L 272.12 343.55 L 272.83 343.92 L 273.31 344.51 L 273.54 345.23 L 273.48 346.03 L 272.52 348.59 L 271.25 350.96 L 269.63 353.16 L 267.74 355.12 L 265.63 356.78 L 263.27 358.16 L 260.74 359.18 L 258.13 359.83 L 255.41 360.13 L 252.69 360.05 L 250.03 359.61 L 247.43 358.80 L 246.75 358.37 L 246.32 357.74 L 246.16 357.00 L 246.30 356.21 L 246.73 355.54 L 247.36 355.11 L 248.10 354.94 L 248.89 355.08 L 250.96 355.72 L 253.08 356.07 L 255.25 356.13 L 257.42 355.90 L 259.49 355.38 L 261.51 354.57 L 263.38 353.47 L 265.06 352.15 L 266.57 350.58 L 267.86 348.82 L 268.88 346.94 L 269.64 344.91 Z" fill="#d06946" fill-rule="nonzero" group-id="1,2" id="Stroke-30" node-id="28" stroke="none" target-height="16.649994" target-width="27.380005" target-x="246.16" target-y="343.48"></path><path d="M 153.70 231.00 L 153.14 236.66 L 152.87 243.86 L 152.91 251.44 L 153.20 259.85 L 153.71 268.40 L 154.40 277.04 L 155.24 285.58 L 156.17 293.48 L 157.22 301.05 L 158.24 307.26 L 159.37 312.87 L 160.31 316.43 L 167.27 320.21 L 171.92 263.83 L 171.92 236.32 L 153.70 231.00 Z" fill="#1f448b" fill-rule="evenodd" group-id="1,2" id="Fill-32" node-id="29" stroke="none" target-height="89.20999" target-width="19.050003" target-x="152.87" target-y="231"></path><path d="M 357.57 231.00 L 358.09 236.66 L 358.34 243.86 L 358.30 251.44 L 358.02 259.85 L 357.54 268.40 L 356.89 277.04 L 355.22 293.48 L 353.28 307.26 L 352.22 312.87 L 351.34 316.43 L 344.95 320.21 L 340.72 263.83 L 340.72 236.32 L 357.57 231.00 Z" fill="#1f448b" fill-rule="evenodd" group-id="1,2" id="Fill-34" node-id="30" stroke="none" target-height="89.20999" target-width="17.619995" target-x="340.72" target-y="231"></path><path d="M 172.26 242.13 L 172.41 246.93 L 172.29 250.17 L 172.16 252.97 L 172.26 254.66 L 172.57 255.56 L 173.19 256.27 L 174.19 256.84 L 176.22 257.38 L 180.09 257.93 L 191.95 259.16 L 199.14 243.13 L 198.01 259.74 L 210.79 260.55 L 225.13 261.01 L 255.75 261.22 L 284.88 261.03 L 284.44 235.51 L 293.77 260.82 L 314.00 260.42 L 321.91 260.20 L 327.57 259.78 L 331.06 259.22 L 333.72 258.43 L 335.71 257.46 L 337.40 256.11 L 338.71 254.34 L 339.67 252.06 L 340.23 249.59 L 340.60 246.34 L 340.72 242.13 L 340.53 236.08 L 339.85 229.10 L 339.11 224.38 L 338.06 219.46 L 336.67 214.33 L 334.97 209.31 L 332.86 204.27 L 330.32 199.20 L 327.38 194.36 L 323.92 189.65 L 319.91 185.07 L 316.66 181.90 L 313.04 178.88 L 309.03 176.01 L 304.60 173.28 L 300.07 170.93 L 295.07 168.80 L 289.56 166.88 L 283.50 165.22 L 277.51 163.98 L 270.92 163.05 L 263.69 162.45 L 255.75 162.22 L 247.81 162.45 L 240.57 163.05 L 233.98 163.98 L 227.98 165.22 L 221.91 166.89 L 216.39 168.80 L 211.39 170.94 L 206.86 173.29 L 202.43 176.02 L 198.42 178.89 L 194.80 181.91 L 191.56 185.07 L 187.57 189.66 L 184.15 194.37 L 181.27 199.21 L 178.79 204.28 L 176.76 209.32 L 175.17 214.34 L 173.91 219.47 L 173.00 224.38 L 172.44 229.10 L 172.08 236.08 L 172.26 242.13 Z" fill="#ffbbba" fill-rule="evenodd" group-id="1,2" id="Fill-36" node-id="31" stroke="none" target-height="99" target-width="168.64" target-x="172.08" target-y="162.22"></path><path d="M 255.75 155.22 L 246.52 155.50 L 237.92 156.24 L 229.92 157.39 L 222.46 158.95 L 214.96 160.99 L 208.01 163.33 L 201.58 165.94 L 195.65 168.82 L 189.79 172.12 L 184.44 175.58 L 179.56 179.17 L 175.11 182.91 L 169.52 188.35 L 164.73 193.80 L 160.68 199.28 L 157.10 205.08 L 154.28 210.64 L 152.16 215.99 L 150.55 221.52 L 149.64 226.53 L 149.36 231.10 L 149.58 234.11 L 150.17 236.69 L 151.11 238.91 L 152.38 240.83 L 154.57 243.04 L 157.39 244.98 L 160.96 246.64 L 164.72 247.88 L 169.17 248.99 L 174.38 249.94 L 182.47 251.07 L 191.95 252.16 L 199.14 235.13 L 198.01 252.74 L 210.79 253.55 L 225.13 254.01 L 255.75 254.22 L 284.88 254.03 L 284.44 228.51 L 293.77 253.82 L 316.23 253.00 L 326.42 252.32 L 335.11 251.36 L 340.72 250.40 L 345.51 249.22 L 349.59 247.85 L 352.56 246.51 L 355.06 244.99 L 357.15 243.30 L 358.87 241.45 L 360.25 239.35 L 361.27 236.96 L 361.91 234.23 L 362.14 231.10 L 361.86 226.53 L 360.95 221.52 L 359.34 215.99 L 357.22 210.64 L 354.40 205.08 L 350.82 199.28 L 346.78 193.80 L 341.99 188.35 L 336.39 182.91 L 331.95 179.17 L 327.06 175.58 L 321.71 172.12 L 315.86 168.82 L 309.92 165.94 L 303.49 163.33 L 296.54 160.99 L 289.04 158.95 L 281.58 157.39 L 273.58 156.24 L 264.98 155.50 L 255.75 155.22" fill="#1f448b" fill-rule="evenodd" group-id="1,2" id="Fill-36" node-id="32" stroke="none" target-height="99" target-width="212.78001" target-x="149.36" target-y="155.22"></path><g clip-path="url(#mask-4)" group-id="1,2,4" node-id="87"><path d="M 248.00 143.40 L 250.65 144.29 L 253.00 145.74 L 255.08 147.63 L 256.98 149.85 L 260.24 154.69 L 262.15 151.79 L 264.39 149.13 L 266.92 146.75 L 269.72 144.68 L 269.98 146.89 L 269.90 149.08 L 269.47 151.27 L 268.71 153.37 L 267.65 155.28 L 266.28 157.04 L 263.09 156.63 L 259.93 156.06 L 256.87 155.18 L 253.99 153.85 L 252.20 152.62 L 250.67 151.15 L 249.38 149.41 L 248.44 147.49 L 247.99 145.50 L 248.00 143.40" fill="#1f448b" fill-rule="evenodd" group-id="1,2,4,6" id="Fill-38" node-id="37" stroke="none" target-height="13.639999" target-width="21.990005" target-x="247.99" target-y="143.4"></path></g></g></g></svg>