<?xml version="1.0" standalone="no"?><!DOCTYPE svg PUBLIC "-//W3C//DTD SVG 1.1//EN" "http://www.w3.org/Graphics/SVG/1.1/DTD/svg11.dtd"><svg t="1696698345758" class="icon" viewBox="0 0 1024 1024" version="1.1" xmlns="http://www.w3.org/2000/svg" p-id="5027" xmlns:xlink="http://www.w3.org/1999/xlink" width="200" height="200"><path d="M186.027 0h651.946Q1024 0 1024 186.027v651.946Q1024 1024 837.973 1024H186.027Q0 1024 0 837.973V186.027Q0 0 186.027 0z" fill="#69adf4" p-id="5028" data-spm-anchor-id="a313x.collections_detail.0.i26.2e0b3a81COzdWN" class="selected"></path><path d="M840.107 358.827l-318.294-143.36a25.173 25.173 0 0 0-22.186 0c-101.974 46.933-204.374 93.866-306.774 139.52-9.813 4.266-18.773 8.106-22.186 18.346V416a22.613 22.613 0 0 0 25.173 13.653 144.213 144.213 0 0 1 19.2 0V768a45.653 45.653 0 0 0 9.387 30.72 35.84 35.84 0 0 0 26.88 13.227h75.946V533.333h368.64v277.334a669.867 669.867 0 0 0 87.894-2.987 42.667 42.667 0 0 0 26.88-39.68V430.507h23.893a17.92 17.92 0 0 0 18.773-19.627v-31.573a20.48 20.48 0 0 0-13.226-20.48z m-448.854 79.786c0 5.12 0 7.254-7.253 7.254h-94.72c-6.4 0-8.107 0-8.107-8.107v-29.013c0-5.12 0-6.4 7.254-6.4H384c5.12 0 7.253 0 7.253 6.4a233.813 233.813 0 0 0 0 29.866zM567.467 409.6v29.867c0 5.12-2.134 6.4-7.254 6.4h-95.146c-5.974 0-8.107 0-8.107-8.107V409.6c0-5.12 0-7.253 7.253-7.253h96.427c5.12-0.427 7.68 2.133 6.827 7.253z m176.64 29.013a7.68 7.68 0 0 1 0 4.694 7.253 7.253 0 0 1-6.827 2.986h-93.867c-6.4 0-8.533 0-8.533-8.106v-27.734c0-5.973 0-8.106 7.253-8.106h95.147c5.547 0 8.107 2.133 8.107 7.253z" fill="#FFFFFF" p-id="5029"></path><path d="M645.12 654.933H380.16a9.813 9.813 0 0 1-10.24-9.813v-27.307A9.813 9.813 0 0 1 380.16 608h264.533a9.813 9.813 0 0 1 9.814 9.813v27.307a9.387 9.387 0 0 1-9.387 9.813z m0 77.654H380.16a9.813 9.813 0 0 1-10.24-9.814v-27.306a9.813 9.813 0 0 1 10.24-9.814h264.533a9.813 9.813 0 0 1 9.814 9.814v27.306a9.387 9.387 0 0 1-9.387 9.814z m0 78.08H380.16a9.813 9.813 0 0 1-10.24-9.814v-27.306a9.813 9.813 0 0 1 10.24-9.814h264.533a9.813 9.813 0 0 1 9.814 9.814v27.306a9.387 9.387 0 0 1-9.387 9.814z" fill="#FFFFFF" p-id="5030"></path></svg>