<?xml version="1.0" standalone="no"?><!DOCTYPE svg PUBLIC "-//W3C//DTD SVG 1.1//EN" "http://www.w3.org/Graphics/SVG/1.1/DTD/svg11.dtd"><svg t="1696698001213" class="icon" viewBox="0 0 1024 1024" version="1.1" xmlns="http://www.w3.org/2000/svg" p-id="3889" xmlns:xlink="http://www.w3.org/1999/xlink" width="200" height="200"><path d="M186.24 0h651.52Q1024 0 1024 186.24v651.52Q1024 1024 837.76 1024H186.24Q0 1024 0 837.76V186.24Q0 0 186.24 0z" fill="#69adf4" p-id="3890" data-spm-anchor-id="a313x.collections_detail.0.i19.2e0b3a81COzdWN" class="selected"></path><path d="M258.56 482.56L480 274.56a49.92 49.92 0 0 1 67.2 0l220.8 208a24.32 24.32 0 0 0 34.88 0 24.64 24.64 0 0 0 0-35.2l-221.12-207.68a101.44 101.44 0 0 0-136.64 0l-224 205.44A26.88 26.88 0 0 0 218.56 480a32 32 0 0 0 40 2.56z m480 27.52a23.36 23.36 0 0 0-24.96 24.96v175.36a50.24 50.24 0 0 1-49.6 50.24h-301.12a50.24 50.24 0 0 1-49.6-50.24v-175.36a24.96 24.96 0 0 0-49.92 0v175.36a100.16 100.16 0 0 0 99.52 100.16h298.56a100.16 100.16 0 0 0 99.52-100.16v-175.36a21.76 21.76 0 0 0-22.4-24.96z" fill="#FFFFFF" p-id="3891"></path><path d="M619.2 627.84l-34.88-32a90.24 90.24 0 0 0 13.44-53.76 103.04 103.04 0 0 0-29.12-73.92 101.76 101.76 0 0 0-69.76-30.08 93.44 93.44 0 0 0-69.76 30.08 103.04 103.04 0 0 0-29.12 73.92 104.32 104.32 0 0 0 29.12 73.92 102.08 102.08 0 0 0 69.76 29.76 103.68 103.68 0 0 0 58.24-19.84l34.88 32c5.76 6.08 15.36 6.08 25.28-1.92a20.16 20.16 0 0 0 1.92-28.16z m-77.76-41.92a55.04 55.04 0 0 1-85.12 0 68.8 68.8 0 0 1 0-91.84 53.76 53.76 0 0 1 42.56-19.84 59.84 59.84 0 0 1 42.56 19.84 68.8 68.8 0 0 1 0 91.84z" fill="#FFFFFF" p-id="3892"></path></svg>