<?xml version="1.0" standalone="no"?><!DOCTYPE svg PUBLIC "-//W3C//DTD SVG 1.1//EN" "http://www.w3.org/Graphics/SVG/1.1/DTD/svg11.dtd"><svg t="1696697409118" class="icon" viewBox="0 0 1024 1024" version="1.1" xmlns="http://www.w3.org/2000/svg" p-id="2588" xmlns:xlink="http://www.w3.org/1999/xlink" width="200" height="200"><path d="M125.95 805.48V218.52c0-51.84 42.18-94.02 94.02-94.02h216.48c15.19 0 27.5 12.31 27.5 27.5s-12.31 27.5-27.5 27.5H219.98c-21.52 0-39.02 17.51-39.02 39.02v586.96c0 21.52 17.5 39.02 39.02 39.02h216.48c15.19 0 27.5 12.31 27.5 27.5s-12.31 27.5-27.5 27.5H219.98c-51.85 0-94.03-42.18-94.03-94.02z" fill="#f56c6c" p-id="2589"></path><path d="M806.95 539.5h-405.5c-15.19 0-27.5-12.31-27.5-27.5s12.31-27.5 27.5-27.5h405.5c15.19 0 27.5 12.31 27.5 27.5s-12.31 27.5-27.5 27.5z" fill="#f56c6c" p-id="2590"></path><path d="M680.45 729.59c-7.04 0-14.08-2.68-19.45-8.05-10.74-10.74-10.74-28.15 0-38.89L831.66 512 661.01 341.35c-10.74-10.74-10.74-28.15 0-38.89 10.74-10.74 28.15-10.74 38.89 0l190.09 190.09c10.74 10.74 10.74 28.15 0 38.89L699.9 721.54c-5.37 5.37-12.41 8.05-19.45 8.05z" fill="#f56c6c" p-id="2591"></path></svg>