<?xml version="1.0" standalone="no"?><!DOCTYPE svg PUBLIC "-//W3C//DTD SVG 1.1//EN" "http://www.w3.org/Graphics/SVG/1.1/DTD/svg11.dtd"><svg t="1696830806902" class="icon" viewBox="0 0 1024 1024" version="1.1" xmlns="http://www.w3.org/2000/svg" p-id="16245" xmlns:xlink="http://www.w3.org/1999/xlink" width="128" height="128"><path d="M350.9248 0.3072l6.331733 0.597333a129.314133 129.314133 0 0 1 48.1792 15.752534l356.4544 200.874666c5.546667 3.1232 10.871467 6.656 15.9232 10.581334l4.949334 4.027733c4.846933 4.181333 9.386667 8.704 13.568 13.533867l4.078933 4.949333c3.9424 5.034667 7.509333 10.359467 10.683733 15.940267l3.037867 5.632c2.901333 5.7344 5.376 11.656533 7.406933 17.749333l1.877334 6.126933c1.723733 6.161067 3.003733 12.458667 3.822933 18.824534l0.648533 6.382933c0.512 6.4 0.529067 12.817067 0.1024 19.217067l-0.597333 6.4a131.447467 131.447467 0 0 1-12.970667 43.451733l-2.6624 5.051733a131.3792 131.3792 0 0 1-10.530133 16.042667l-4.027733 4.983467a130.5088 130.5088 0 0 1-13.431467 13.653333l-4.9152 4.096a130.9696 130.9696 0 0 1-15.803733 10.752l-5.597867 3.072c-5.6832 2.901333-11.5712 5.393067-17.6128 7.441067l-6.109867 1.8944c-6.144 1.757867-12.3904 3.037867-18.705066 3.857066l-6.331734 0.6656-5.12 0.3072-5.102933 0.1024c-3.396267 0-6.792533-0.136533-10.1888-0.4096l-5.085867-0.512a128.3584 128.3584 0 0 1-18.722133-3.652266l-6.0928-1.826134a129.570133 129.570133 0 0 1-23.330133-10.257066l-23.022934-12.987734-296.874666 525.175467a31.914667 31.914667 0 0 1-33.143467 15.889067L109.499733 1015.466667 58.197333 986.555733 7.901867 831.522133a32.375467 32.375467 0 0 1-3.857067-36.829866l0.170667-0.3072 305.646933-532.053334-31.249067-17.595733a130.082133 130.082133 0 0 1-15.940266-10.615467l-4.949334-4.0448a130.286933 130.286933 0 0 1-13.568-13.5168l-4.061866-4.932266a131.1232 131.1232 0 0 1-10.7008-15.940267l-3.0208-5.632a131.976533 131.976533 0 0 1-7.406934-17.7152l-1.877333-6.144a131.822933 131.822933 0 0 1-4.522667-45.1584l0.529067-5.6832c0.750933-6.382933 1.962667-12.680533 3.6352-18.875733l1.809067-6.144c1.979733-6.109867 4.4032-12.066133 7.236266-17.800534l2.9696-5.6832c3.1232-5.597867 6.638933-10.9568 10.530134-16.042666l4.027733-4.983467c4.1472-4.881067 8.635733-9.454933 13.448533-13.6704l4.9152-4.096c5.000533-3.976533 10.2912-7.5776 15.8208-10.752l5.597867-3.072c5.6832-2.901333 11.554133-5.393067 17.578667-7.424l6.0928-1.8944c6.144-1.7408 12.407467-3.037867 18.722133-3.857067l6.3488-0.648533a129.536 129.536 0 0 1 19.0976-0.1024z m530.944 531.5072L1015.466667 764.757333l-133.5808 232.9088H614.724267L481.143467 764.757333l133.5808-232.942933h267.1616zM55.0912 832.989867l39.936 123.101866 20.992 11.8272 164.932267-39.936 31.419733-55.586133-257.28-39.406933zM856.251733 576.512H640.341333l-107.963733 188.245333 107.963733 188.228267h215.893334l107.946666-188.245333-107.946666-188.228267z m-107.946666 76.817067c61.013333 0 110.677333 49.988267 110.677333 111.4112 0 61.44-49.664 111.428267-110.677333 111.428266-61.0304 0-110.677333-49.988267-110.677334-111.428266s49.646933-111.4112 110.677334-111.4112z m0 23.842133c-47.9744 0-87.005867 39.287467-87.005867 87.569067 0 48.298667 39.031467 87.586133 87.005867 87.586133 47.957333 0 86.9888-39.287467 86.9888-87.586133 0-48.298667-39.031467-87.569067-86.9888-87.569067zM102.519467 712.533333l-43.5712 75.844267 276.923733 42.410667 42.922667-75.946667L102.519467 712.533333z m645.7856-10.018133c34.082133 0 61.815467 27.921067 61.815466 62.242133 0 34.304-27.733333 62.225067-61.815466 62.225067-34.0992 0-61.815467-27.921067-61.815467-62.225067 0-34.321067 27.716267-62.242133 61.815467-62.242133z m0 20.855467a41.284267 41.284267 0 0 0-41.096534 41.3696 41.284267 41.284267 0 0 0 41.096534 41.386666 41.301333 41.301333 0 0 0 41.096533-41.386666 41.301333 41.301333 0 0 0-41.096533-41.3696zM167.304533 599.773867l-40.925866 71.202133 275.933866 42.257067 40.2944-71.304534-275.3024-42.154666z m62.7712-109.277867l-38.912 67.720533 274.978134 42.120534 38.314666-67.805867-274.3808-42.0352z m63.197867-109.994667l-39.3216 68.4544 274.0224 41.966934 38.741333-68.539734-273.442133-41.8816z m48.776533-335.803733c-6.280533 0-12.544 0.682667-18.670933 2.065067l-4.5568 1.160533a84.923733 84.923733 0 0 0-11.793067 4.317867l-3.7888 1.826133c-3.7376 1.911467-7.3216 4.096-10.734933 6.5536l-3.345067 2.525867a86.016 86.016 0 0 0-26.862933 36.625066l-1.536 4.369067a86.664533 86.664533 0 0 0-2.184533 44.970667l1.2288 4.949333c1.143467 4.061867 2.577067 8.021333 4.3008 11.895467l1.809066 3.805866c1.911467 3.754667 4.096 7.3728 6.519467 10.8032l2.5088 3.3792c6.9632 8.874667 15.5648 16.264533 25.344 21.794134l322.9184 181.9648 49.664 25.890133 3.2256 0.9728c2.679467 0.733867 5.410133 1.3312 8.157867 1.792l4.1472 0.597333c4.181333 0.512 8.379733 0.699733 12.5952 0.580267l4.1984-0.238933c4.181333-0.341333 8.328533-0.9728 12.407466-1.928534l4.078934-1.024c4.027733-1.160533 7.9872-2.6112 11.8272-4.352l3.7888-1.826133a85.6064 85.6064 0 0 0 22.920533-17.186133l3.2256-3.584a86.237867 86.237867 0 0 0 19.2-41.1648l0.6656-4.590934c0.477867-4.1984 0.682667-8.413867 0.546133-12.629333l-0.221866-4.232533a86.852267 86.852267 0 0 0-1.911467-12.4928l-1.024-4.096a86.596267 86.596267 0 0 0-4.3008-11.8784l-1.809067-3.805867a86.1184 86.1184 0 0 0-17.083733-23.108267l-3.584-3.242666a86.084267 86.084267 0 0 0-13.7216-9.6256L383.761067 55.637333a85.265067 85.265067 0 0 0-26.965334-9.659733l-4.744533-0.7168a85.248 85.248 0 0 0-6.656-0.512l-3.345067-0.068267z m2.747734 248.2176l-23.893334 46.626133 160.512 24.576-136.618666-71.202133z m123.409066-113.186133l122.948267 69.290666c10.7008 6.024533 14.506667 19.643733 8.533333 30.4128a22.186667 22.186667 0 0 1-30.208 8.584534l-122.965333-69.290667a22.4256 22.4256 0 0 1-8.533333-30.4128 22.1184 22.1184 0 0 1 30.225066-8.584533z" fill="#69adf4" p-id="16246" data-spm-anchor-id="a313x.search_index.0.i32.75ed3a81NZZBbq" class=""></path></svg>