<?xml version="1.0" standalone="no"?><!DOCTYPE svg PUBLIC "-//W3C//DTD SVG 1.1//EN" "http://www.w3.org/Graphics/SVG/1.1/DTD/svg11.dtd"><svg height="500" node-id="1" sillyvg="true" template-height="500" template-width="500" version="1.1" viewBox="0 0 500 500" width="500" xmlns="http://www.w3.org/2000/svg" xmlns:xlink="http://www.w3.org/1999/xlink"><defs node-id="283"><linearGradient gradientUnits="objectBoundingBox" id="linearGradient-2" node-id="7" spreadMethod="pad" x1="0.3259383" x2="0.5" y1="-0.0000000000000035527137" y2="0.7013484"><stop offset="0" stop-color="#96d67e"></stop><stop offset="1" stop-color="#4a841e"></stop></linearGradient><linearGradient gradientUnits="objectBoundingBox" id="linearGradient-9" node-id="30" spreadMethod="pad" x1="0.5" x2="0.5" y1="0" y2="0.99144846"><stop offset="0" stop-color="#a9e991"></stop><stop offset="0.98593223" stop-color="#659d3b"></stop></linearGradient><linearGradient gradientUnits="objectBoundingBox" id="linearGradient-19" node-id="79" spreadMethod="pad" x1="0.5" x2="0.5" y1="0" y2="1"><stop offset="0" stop-color="#ffb394"></stop><stop offset="1" stop-color="#da2d2a"></stop></linearGradient><linearGradient gradientUnits="objectBoundingBox" id="linearGradient-24" node-id="104" spreadMethod="pad" x1="0.5" x2="0.5" y1="0" y2="1"><stop offset="0" stop-color="#ffdddd"></stop><stop offset="1" stop-color="#fff4f4"></stop></linearGradient><filter height="3.091" id="filter-1" node-id="5" width="2.577" x="-0.789" y="-1.045"><feGaussianBlur color-interpolation-filters="linearRGB" in="SourceGraphic" result="result1" stdDeviation="46 46"></feGaussianBlur></filter><filter height="1.099" id="filter-4" node-id="11" width="1.179" x="-0.09" y="-0.035"><feOffset color-interpolation-filters="linearRGB" dx="0" dy="1" in="SourceAlpha" result="shadowOffsetOuter1"></feOffset><feGaussianBlur color-interpolation-filters="linearRGB" in="shadowOffsetOuter1" result="shadowBlurOuter1" stdDeviation="1 1"></feGaussianBlur><feColorMatrix color-interpolation-filters="linearRGB" in="shadowBlurOuter1" result="result3" type="matrix" values="0 0 0 0 0.227626356 0 0 0 0 0.317396966 0 0 0 0 0.125259309 0 0 0 0.637702142 0"></feColorMatrix></filter><filter height="1.085" id="filter-5" node-id="15" width="1.154" x="-0.077" y="-0.028"><feGaussianBlur color-interpolation-filters="linearRGB" in="SourceAlpha" result="shadowBlurInner1" stdDeviation="0.5 0.5"></feGaussianBlur><feOffset color-interpolation-filters="linearRGB" dx="0" dy="1" in="shadowBlurInner1" result="shadowOffsetInner1"></feOffset><feComposite color-interpolation-filters="linearRGB" in="shadowOffsetInner1" in2="SourceAlpha" k1="0" k2="-1" k3="1" k4="0" operator="arithmetic" result="shadowInnerInner1"></feComposite><feColorMatrix color-interpolation-filters="linearRGB" in="shadowInnerInner1" result="result4" type="matrix" values="0 0 0 0 0.905963327 0 0 0 0 0.97118433 0 0 0 0 0.869531976 0 0 0 0.607544799 0"></feColorMatrix></filter><filter height="1.099" id="filter-7" node-id="21" width="1.179" x="-0.09" y="-0.035"><feOffset color-interpolation-filters="linearRGB" dx="0" dy="1" in="SourceAlpha" result="shadowOffsetOuter1"></feOffset><feGaussianBlur color-interpolation-filters="linearRGB" in="shadowOffsetOuter1" result="shadowBlurOuter1" stdDeviation="1 1"></feGaussianBlur><feColorMatrix color-interpolation-filters="linearRGB" in="shadowBlurOuter1" result="result3" type="matrix" values="0 0 0 0 0.227626356 0 0 0 0 0.317396966 0 0 0 0 0.125259309 0 0 0 0.637702142 0"></feColorMatrix></filter><filter height="1.085" id="filter-8" node-id="25" width="1.154" x="-0.077" y="-0.028"><feGaussianBlur color-interpolation-filters="linearRGB" in="SourceAlpha" result="shadowBlurInner1" stdDeviation="0.5 0.5"></feGaussianBlur><feOffset color-interpolation-filters="linearRGB" dx="0" dy="1" in="shadowBlurInner1" result="shadowOffsetInner1"></feOffset><feComposite color-interpolation-filters="linearRGB" in="shadowOffsetInner1" in2="SourceAlpha" k1="0" k2="-1" k3="1" k4="0" operator="arithmetic" result="shadowInnerInner1"></feComposite><feColorMatrix color-interpolation-filters="linearRGB" in="shadowInnerInner1" result="result4" type="matrix" values="0 0 0 0 0.905963327 0 0 0 0 0.97118433 0 0 0 0 0.869531976 0 0 0 0.607544799 0"></feColorMatrix></filter><filter height="1.227" id="filter-11" node-id="34" width="1.385" x="-0.167" y="-0.071"><feMorphology color-interpolation-filters="linearRGB" in="SourceAlpha" operator="dilate" radius="1 1" result="shadowSpreadOuter1"></feMorphology><feOffset color-interpolation-filters="linearRGB" dx="1" dy="3" in="shadowSpreadOuter1" result="shadowOffsetOuter1"></feOffset><feGaussianBlur color-interpolation-filters="linearRGB" in="shadowOffsetOuter1" result="shadowBlurOuter1" stdDeviation="1 1"></feGaussianBlur><feColorMatrix color-interpolation-filters="linearRGB" in="shadowBlurOuter1" result="result4" type="matrix" values="0 0 0 0 0.301064678 0 0 0 0 0.482421875 0 0 0 0 0.0942597924 0 0 0 0.272454108 0"></feColorMatrix></filter><filter height="1.255" id="filter-12" node-id="39" width="1.436" x="-0.192" y="-0.085"><feGaussianBlur color-interpolation-filters="linearRGB" in="SourceAlpha" result="shadowBlurInner1" stdDeviation="0.5 0.5"></feGaussianBlur><feOffset color-interpolation-filters="linearRGB" dx="-1" dy="0" in="shadowBlurInner1" result="shadowOffsetInner1"></feOffset><feComposite color-interpolation-filters="linearRGB" in="shadowOffsetInner1" in2="SourceAlpha" k1="0" k2="-1" k3="1" k4="0" operator="arithmetic" result="shadowInnerInner1"></feComposite><feColorMatrix color-interpolation-filters="linearRGB" in="shadowInnerInner1" result="shadowMatrixInner1" type="matrix" values="0 0 0 0 0.704882146 0 0 0 0 1 0 0 0 0 0.540034299 0 0 0 0.5 0"></feColorMatrix><feGaussianBlur color-interpolation-filters="linearRGB" in="SourceAlpha" result="shadowBlurInner2" stdDeviation="2.5 2.5"></feGaussianBlur><feOffset color-interpolation-filters="linearRGB" dx="2" dy="-4" in="shadowBlurInner2" result="shadowOffsetInner2"></feOffset><feComposite color-interpolation-filters="linearRGB" in="shadowOffsetInner2" in2="SourceAlpha" k1="0" k2="-1" k3="1" k4="0" operator="arithmetic" result="shadowInnerInner2"></feComposite><feColorMatrix color-interpolation-filters="linearRGB" in="shadowInnerInner2" result="shadowMatrixInner2" type="matrix" values="0 0 0 0 0.288957577 0 0 0 0 0.563066123 0 0 0 0 0.00347624664 0 0 0 0.444656906 0"></feColorMatrix><feMerge color-interpolation-filters="linearRGB" result="result9"><feMergeNode in="shadowMatrixInner1"></feMergeNode><feMergeNode in="shadowMatrixInner2"></feMergeNode></feMerge></filter><filter height="1.099" id="filter-14" node-id="52" width="1.179" x="-0.09" y="-0.035"><feOffset color-interpolation-filters="linearRGB" dx="0" dy="1" in="SourceAlpha" result="shadowOffsetOuter1"></feOffset><feGaussianBlur color-interpolation-filters="linearRGB" in="shadowOffsetOuter1" result="shadowBlurOuter1" stdDeviation="1 1"></feGaussianBlur><feColorMatrix color-interpolation-filters="linearRGB" in="shadowBlurOuter1" result="result3" type="matrix" values="0 0 0 0 0.227626356 0 0 0 0 0.317396966 0 0 0 0 0.125259309 0 0 0 0.637702142 0"></feColorMatrix></filter><filter height="1.085" id="filter-15" node-id="56" width="1.154" x="-0.077" y="-0.028"><feGaussianBlur color-interpolation-filters="linearRGB" in="SourceAlpha" result="shadowBlurInner1" stdDeviation="0.5 0.5"></feGaussianBlur><feOffset color-interpolation-filters="linearRGB" dx="0" dy="1" in="shadowBlurInner1" result="shadowOffsetInner1"></feOffset><feComposite color-interpolation-filters="linearRGB" in="shadowOffsetInner1" in2="SourceAlpha" k1="0" k2="-1" k3="1" k4="0" operator="arithmetic" result="shadowInnerInner1"></feComposite><feColorMatrix color-interpolation-filters="linearRGB" in="shadowInnerInner1" result="result4" type="matrix" values="0 0 0 0 0.905963327 0 0 0 0 0.97118433 0 0 0 0 0.869531976 0 0 0 0.607544799 0"></feColorMatrix></filter><filter height="1.227" id="filter-17" node-id="62" width="1.385" x="-0.167" y="-0.071"><feMorphology color-interpolation-filters="linearRGB" in="SourceAlpha" operator="dilate" radius="1 1" result="shadowSpreadOuter1"></feMorphology><feOffset color-interpolation-filters="linearRGB" dx="1" dy="3" in="shadowSpreadOuter1" result="shadowOffsetOuter1"></feOffset><feGaussianBlur color-interpolation-filters="linearRGB" in="shadowOffsetOuter1" result="shadowBlurOuter1" stdDeviation="1 1"></feGaussianBlur><feColorMatrix color-interpolation-filters="linearRGB" in="shadowBlurOuter1" result="result4" type="matrix" values="0 0 0 0 0.301064678 0 0 0 0 0.482421875 0 0 0 0 0.0942597924 0 0 0 0.272454108 0"></feColorMatrix></filter><filter height="1.255" id="filter-18" node-id="67" width="1.436" x="-0.192" y="-0.085"><feGaussianBlur color-interpolation-filters="linearRGB" in="SourceAlpha" result="shadowBlurInner1" stdDeviation="0.5 0.5"></feGaussianBlur><feOffset color-interpolation-filters="linearRGB" dx="-1" dy="0" in="shadowBlurInner1" result="shadowOffsetInner1"></feOffset><feComposite color-interpolation-filters="linearRGB" in="shadowOffsetInner1" in2="SourceAlpha" k1="0" k2="-1" k3="1" k4="0" operator="arithmetic" result="shadowInnerInner1"></feComposite><feColorMatrix color-interpolation-filters="linearRGB" in="shadowInnerInner1" result="shadowMatrixInner1" type="matrix" values="0 0 0 0 0.704882146 0 0 0 0 1 0 0 0 0 0.540034299 0 0 0 0.5 0"></feColorMatrix><feGaussianBlur color-interpolation-filters="linearRGB" in="SourceAlpha" result="shadowBlurInner2" stdDeviation="2.5 2.5"></feGaussianBlur><feOffset color-interpolation-filters="linearRGB" dx="2" dy="-4" in="shadowBlurInner2" result="shadowOffsetInner2"></feOffset><feComposite color-interpolation-filters="linearRGB" in="shadowOffsetInner2" in2="SourceAlpha" k1="0" k2="-1" k3="1" k4="0" operator="arithmetic" result="shadowInnerInner2"></feComposite><feColorMatrix color-interpolation-filters="linearRGB" in="shadowInnerInner2" result="shadowMatrixInner2" type="matrix" values="0 0 0 0 0.288957577 0 0 0 0 0.563066123 0 0 0 0 0.00347624664 0 0 0 0.444656906 0"></feColorMatrix><feMerge color-interpolation-filters="linearRGB" result="result9"><feMergeNode in="shadowMatrixInner1"></feMergeNode><feMergeNode in="shadowMatrixInner2"></feMergeNode></feMerge></filter><filter height="1.044" id="filter-21" node-id="83" width="1.048" x="-0.024" y="-0.022"><feGaussianBlur color-interpolation-filters="linearRGB" in="SourceAlpha" result="shadowBlurInner1" stdDeviation="3.5 3.5"></feGaussianBlur><feOffset color-interpolation-filters="linearRGB" dx="2" dy="-3" in="shadowBlurInner1" result="shadowOffsetInner1"></feOffset><feComposite color-interpolation-filters="linearRGB" in="shadowOffsetInner1" in2="SourceAlpha" k1="0" k2="-1" k3="1" k4="0" operator="arithmetic" result="shadowInnerInner1"></feComposite><feColorMatrix color-interpolation-filters="linearRGB" in="shadowInnerInner1" result="shadowMatrixInner1" type="matrix" values="0 0 0 0 1 0 0 0 0 0.511623476 0 0 0 0 0.511623476 0 0 0 0.711565778 0"></feColorMatrix><feGaussianBlur color-interpolation-filters="linearRGB" in="SourceAlpha" result="shadowBlurInner2" stdDeviation="1.5 1.5"></feGaussianBlur><feOffset color-interpolation-filters="linearRGB" dx="-2" dy="1" in="shadowBlurInner2" result="shadowOffsetInner2"></feOffset><feComposite color-interpolation-filters="linearRGB" in="shadowOffsetInner2" in2="SourceAlpha" k1="0" k2="-1" k3="1" k4="0" operator="arithmetic" result="shadowInnerInner2"></feComposite><feColorMatrix color-interpolation-filters="linearRGB" in="shadowInnerInner2" result="shadowMatrixInner2" type="matrix" values="0 0 0 0 1 0 0 0 0 0.82265625 0 0 0 0 0.82265625 0 0 0 0.5 0"></feColorMatrix><feGaussianBlur color-interpolation-filters="linearRGB" in="SourceAlpha" result="shadowBlurInner3" stdDeviation="0.5 0.5"></feGaussianBlur><feOffset color-interpolation-filters="linearRGB" dx="-1" dy="0" in="shadowBlurInner3" result="shadowOffsetInner3"></feOffset><feComposite color-interpolation-filters="linearRGB" in="shadowOffsetInner3" in2="SourceAlpha" k1="0" k2="-1" k3="1" k4="0" operator="arithmetic" result="shadowInnerInner3"></feComposite><feColorMatrix color-interpolation-filters="linearRGB" in="shadowInnerInner3" result="shadowMatrixInner3" type="matrix" values="0 0 0 0 1 0 0 0 0 1 0 0 0 0 1 0 0 0 0.5 0"></feColorMatrix><feMerge color-interpolation-filters="linearRGB" result="result13"><feMergeNode in="shadowMatrixInner1"></feMergeNode><feMergeNode in="shadowMatrixInner2"></feMergeNode><feMergeNode in="shadowMatrixInner3"></feMergeNode></feMerge></filter><filter height="1.844" id="filter-22" node-id="100" width="3.118" x="-1.059" y="-0.422"><feGaussianBlur color-interpolation-filters="linearRGB" in="SourceGraphic" result="result1" stdDeviation="18 18"></feGaussianBlur></filter><filter height="2.714" id="filter-23" node-id="102" width="1.522" x="-0.261" y="-0.857"><feGaussianBlur color-interpolation-filters="linearRGB" in="SourceGraphic" result="result1" stdDeviation="12 12"></feGaussianBlur></filter><filter height="2.409" id="filter-26" node-id="108" width="3.583" x="-1.292" y="-0.523"><feMorphology color-interpolation-filters="linearRGB" in="SourceAlpha" operator="dilate" radius="1 1" result="shadowSpreadOuter1"></feMorphology><feOffset color-interpolation-filters="linearRGB" dx="0" dy="4" in="shadowSpreadOuter1" result="shadowOffsetOuter1"></feOffset><feGaussianBlur color-interpolation-filters="linearRGB" in="shadowOffsetOuter1" result="shadowBlurOuter1" stdDeviation="3.5 3.5"></feGaussianBlur><feColorMatrix color-interpolation-filters="linearRGB" in="shadowBlurOuter1" result="result4" type="matrix" values="0 0 0 0 1 0 0 0 0 1 0 0 0 0 1 0 0 0 0.252622378 0"></feColorMatrix></filter><filter height="2" id="filter-27" node-id="113" width="2.833" x="-0.917" y="-0.318"><feGaussianBlur color-interpolation-filters="linearRGB" in="SourceAlpha" result="shadowBlurInner1" stdDeviation="1 1"></feGaussianBlur><feOffset color-interpolation-filters="linearRGB" dx="0" dy="-2" in="shadowBlurInner1" result="shadowOffsetInner1"></feOffset><feComposite color-interpolation-filters="linearRGB" in="shadowOffsetInner1" in2="SourceAlpha" k1="0" k2="-1" k3="1" k4="0" operator="arithmetic" result="shadowInnerInner1"></feComposite><feColorMatrix color-interpolation-filters="linearRGB" in="shadowInnerInner1" result="shadowMatrixInner1" type="matrix" values="0 0 0 0 0.729025136 0 0 0 0 0.0176144031 0 0 0 0 0.0176144031 0 0 0 0.861833479 0"></feColorMatrix><feOffset color-interpolation-filters="linearRGB" dx="0" dy="1" in="SourceAlpha" result="shadowOffsetInner2"></feOffset><feComposite color-interpolation-filters="linearRGB" in="shadowOffsetInner2" in2="SourceAlpha" k1="0" k2="-1" k3="1" k4="0" operator="arithmetic" result="shadowInnerInner2"></feComposite><feColorMatrix color-interpolation-filters="linearRGB" in="shadowInnerInner2" result="shadowMatrixInner2" type="matrix" values="0 0 0 0 1 0 0 0 0 1 0 0 0 0 1 0 0 0 0.984019886 0"></feColorMatrix><feMerge color-interpolation-filters="linearRGB" result="result8"><feMergeNode in="shadowMatrixInner1"></feMergeNode><feMergeNode in="shadowMatrixInner2"></feMergeNode></feMerge></filter><filter height="2.409" id="filter-29" node-id="125" width="3.583" x="-1.292" y="-0.523"><feMorphology color-interpolation-filters="linearRGB" in="SourceAlpha" operator="dilate" radius="1 1" result="shadowSpreadOuter1"></feMorphology><feOffset color-interpolation-filters="linearRGB" dx="0" dy="4" in="shadowSpreadOuter1" result="shadowOffsetOuter1"></feOffset><feGaussianBlur color-interpolation-filters="linearRGB" in="shadowOffsetOuter1" result="shadowBlurOuter1" stdDeviation="3.5 3.5"></feGaussianBlur><feColorMatrix color-interpolation-filters="linearRGB" in="shadowBlurOuter1" result="result4" type="matrix" values="0 0 0 0 1 0 0 0 0 1 0 0 0 0 1 0 0 0 0.252622378 0"></feColorMatrix></filter><filter height="2" id="filter-30" node-id="130" width="2.833" x="-0.917" y="-0.318"><feGaussianBlur color-interpolation-filters="linearRGB" in="SourceAlpha" result="shadowBlurInner1" stdDeviation="1 1"></feGaussianBlur><feOffset color-interpolation-filters="linearRGB" dx="0" dy="-2" in="shadowBlurInner1" result="shadowOffsetInner1"></feOffset><feComposite color-interpolation-filters="linearRGB" in="shadowOffsetInner1" in2="SourceAlpha" k1="0" k2="-1" k3="1" k4="0" operator="arithmetic" result="shadowInnerInner1"></feComposite><feColorMatrix color-interpolation-filters="linearRGB" in="shadowInnerInner1" result="shadowMatrixInner1" type="matrix" values="0 0 0 0 0.729025136 0 0 0 0 0.0176144031 0 0 0 0 0.0176144031 0 0 0 0.861833479 0"></feColorMatrix><feOffset color-interpolation-filters="linearRGB" dx="0" dy="1" in="SourceAlpha" result="shadowOffsetInner2"></feOffset><feComposite color-interpolation-filters="linearRGB" in="shadowOffsetInner2" in2="SourceAlpha" k1="0" k2="-1" k3="1" k4="0" operator="arithmetic" result="shadowInnerInner2"></feComposite><feColorMatrix color-interpolation-filters="linearRGB" in="shadowInnerInner2" result="shadowMatrixInner2" type="matrix" values="0 0 0 0 1 0 0 0 0 1 0 0 0 0 1 0 0 0 0.984019886 0"></feColorMatrix><feMerge color-interpolation-filters="linearRGB" result="result8"><feMergeNode in="shadowMatrixInner1"></feMergeNode><feMergeNode in="shadowMatrixInner2"></feMergeNode></feMerge></filter><filter height="2.409" id="filter-32" node-id="142" width="3.583" x="-1.292" y="-0.523"><feMorphology color-interpolation-filters="linearRGB" in="SourceAlpha" operator="dilate" radius="1 1" result="shadowSpreadOuter1"></feMorphology><feOffset color-interpolation-filters="linearRGB" dx="0" dy="4" in="shadowSpreadOuter1" result="shadowOffsetOuter1"></feOffset><feGaussianBlur color-interpolation-filters="linearRGB" in="shadowOffsetOuter1" result="shadowBlurOuter1" stdDeviation="3.5 3.5"></feGaussianBlur><feColorMatrix color-interpolation-filters="linearRGB" in="shadowBlurOuter1" result="result4" type="matrix" values="0 0 0 0 1 0 0 0 0 1 0 0 0 0 1 0 0 0 0.252622378 0"></feColorMatrix></filter><filter height="2" id="filter-33" node-id="147" width="2.833" x="-0.917" y="-0.318"><feGaussianBlur color-interpolation-filters="linearRGB" in="SourceAlpha" result="shadowBlurInner1" stdDeviation="1 1"></feGaussianBlur><feOffset color-interpolation-filters="linearRGB" dx="0" dy="-2" in="shadowBlurInner1" result="shadowOffsetInner1"></feOffset><feComposite color-interpolation-filters="linearRGB" in="shadowOffsetInner1" in2="SourceAlpha" k1="0" k2="-1" k3="1" k4="0" operator="arithmetic" result="shadowInnerInner1"></feComposite><feColorMatrix color-interpolation-filters="linearRGB" in="shadowInnerInner1" result="shadowMatrixInner1" type="matrix" values="0 0 0 0 0.729025136 0 0 0 0 0.0176144031 0 0 0 0 0.0176144031 0 0 0 0.861833479 0"></feColorMatrix><feOffset color-interpolation-filters="linearRGB" dx="0" dy="1" in="SourceAlpha" result="shadowOffsetInner2"></feOffset><feComposite color-interpolation-filters="linearRGB" in="shadowOffsetInner2" in2="SourceAlpha" k1="0" k2="-1" k3="1" k4="0" operator="arithmetic" result="shadowInnerInner2"></feComposite><feColorMatrix color-interpolation-filters="linearRGB" in="shadowInnerInner2" result="shadowMatrixInner2" type="matrix" values="0 0 0 0 1 0 0 0 0 1 0 0 0 0 1 0 0 0 0.984019886 0"></feColorMatrix><feMerge color-interpolation-filters="linearRGB" result="result8"><feMergeNode in="shadowMatrixInner1"></feMergeNode><feMergeNode in="shadowMatrixInner2"></feMergeNode></feMerge></filter><filter height="2.409" id="filter-35" node-id="159" width="3.583" x="-1.292" y="-0.523"><feMorphology color-interpolation-filters="linearRGB" in="SourceAlpha" operator="dilate" radius="1 1" result="shadowSpreadOuter1"></feMorphology><feOffset color-interpolation-filters="linearRGB" dx="0" dy="4" in="shadowSpreadOuter1" result="shadowOffsetOuter1"></feOffset><feGaussianBlur color-interpolation-filters="linearRGB" in="shadowOffsetOuter1" result="shadowBlurOuter1" stdDeviation="3.5 3.5"></feGaussianBlur><feColorMatrix color-interpolation-filters="linearRGB" in="shadowBlurOuter1" result="result4" type="matrix" values="0 0 0 0 1 0 0 0 0 1 0 0 0 0 1 0 0 0 0.252622378 0"></feColorMatrix></filter><filter height="2" id="filter-36" node-id="164" width="2.833" x="-0.917" y="-0.318"><feGaussianBlur color-interpolation-filters="linearRGB" in="SourceAlpha" result="shadowBlurInner1" stdDeviation="1 1"></feGaussianBlur><feOffset color-interpolation-filters="linearRGB" dx="0" dy="-2" in="shadowBlurInner1" result="shadowOffsetInner1"></feOffset><feComposite color-interpolation-filters="linearRGB" in="shadowOffsetInner1" in2="SourceAlpha" k1="0" k2="-1" k3="1" k4="0" operator="arithmetic" result="shadowInnerInner1"></feComposite><feColorMatrix color-interpolation-filters="linearRGB" in="shadowInnerInner1" result="shadowMatrixInner1" type="matrix" values="0 0 0 0 0.729025136 0 0 0 0 0.0176144031 0 0 0 0 0.0176144031 0 0 0 0.861833479 0"></feColorMatrix><feOffset color-interpolation-filters="linearRGB" dx="0" dy="1" in="SourceAlpha" result="shadowOffsetInner2"></feOffset><feComposite color-interpolation-filters="linearRGB" in="shadowOffsetInner2" in2="SourceAlpha" k1="0" k2="-1" k3="1" k4="0" operator="arithmetic" result="shadowInnerInner2"></feComposite><feColorMatrix color-interpolation-filters="linearRGB" in="shadowInnerInner2" result="shadowMatrixInner2" type="matrix" values="0 0 0 0 1 0 0 0 0 1 0 0 0 0 1 0 0 0 0.984019886 0"></feColorMatrix><feMerge color-interpolation-filters="linearRGB" result="result8"><feMergeNode in="shadowMatrixInner1"></feMergeNode><feMergeNode in="shadowMatrixInner2"></feMergeNode></feMerge></filter><filter height="2.409" id="filter-38" node-id="176" width="3.583" x="-1.292" y="-0.523"><feMorphology color-interpolation-filters="linearRGB" in="SourceAlpha" operator="dilate" radius="1 1" result="shadowSpreadOuter1"></feMorphology><feOffset color-interpolation-filters="linearRGB" dx="0" dy="4" in="shadowSpreadOuter1" result="shadowOffsetOuter1"></feOffset><feGaussianBlur color-interpolation-filters="linearRGB" in="shadowOffsetOuter1" result="shadowBlurOuter1" stdDeviation="3.5 3.5"></feGaussianBlur><feColorMatrix color-interpolation-filters="linearRGB" in="shadowBlurOuter1" result="result4" type="matrix" values="0 0 0 0 1 0 0 0 0 1 0 0 0 0 1 0 0 0 0.252622378 0"></feColorMatrix></filter><filter height="2" id="filter-39" node-id="181" width="2.833" x="-0.917" y="-0.318"><feGaussianBlur color-interpolation-filters="linearRGB" in="SourceAlpha" result="shadowBlurInner1" stdDeviation="1 1"></feGaussianBlur><feOffset color-interpolation-filters="linearRGB" dx="0" dy="-2" in="shadowBlurInner1" result="shadowOffsetInner1"></feOffset><feComposite color-interpolation-filters="linearRGB" in="shadowOffsetInner1" in2="SourceAlpha" k1="0" k2="-1" k3="1" k4="0" operator="arithmetic" result="shadowInnerInner1"></feComposite><feColorMatrix color-interpolation-filters="linearRGB" in="shadowInnerInner1" result="shadowMatrixInner1" type="matrix" values="0 0 0 0 0.729025136 0 0 0 0 0.0176144031 0 0 0 0 0.0176144031 0 0 0 0.861833479 0"></feColorMatrix><feOffset color-interpolation-filters="linearRGB" dx="0" dy="1" in="SourceAlpha" result="shadowOffsetInner2"></feOffset><feComposite color-interpolation-filters="linearRGB" in="shadowOffsetInner2" in2="SourceAlpha" k1="0" k2="-1" k3="1" k4="0" operator="arithmetic" result="shadowInnerInner2"></feComposite><feColorMatrix color-interpolation-filters="linearRGB" in="shadowInnerInner2" result="shadowMatrixInner2" type="matrix" values="0 0 0 0 1 0 0 0 0 1 0 0 0 0 1 0 0 0 0.984019886 0"></feColorMatrix><feMerge color-interpolation-filters="linearRGB" result="result8"><feMergeNode in="shadowMatrixInner1"></feMergeNode><feMergeNode in="shadowMatrixInner2"></feMergeNode></feMerge></filter><filter height="2.409" id="filter-41" node-id="193" width="3.583" x="-1.292" y="-0.523"><feMorphology color-interpolation-filters="linearRGB" in="SourceAlpha" operator="dilate" radius="1 1" result="shadowSpreadOuter1"></feMorphology><feOffset color-interpolation-filters="linearRGB" dx="0" dy="4" in="shadowSpreadOuter1" result="shadowOffsetOuter1"></feOffset><feGaussianBlur color-interpolation-filters="linearRGB" in="shadowOffsetOuter1" result="shadowBlurOuter1" stdDeviation="3.5 3.5"></feGaussianBlur><feColorMatrix color-interpolation-filters="linearRGB" in="shadowBlurOuter1" result="result4" type="matrix" values="0 0 0 0 1 0 0 0 0 1 0 0 0 0 1 0 0 0 0.252622378 0"></feColorMatrix></filter><filter height="2" id="filter-42" node-id="198" width="2.833" x="-0.917" y="-0.318"><feGaussianBlur color-interpolation-filters="linearRGB" in="SourceAlpha" result="shadowBlurInner1" stdDeviation="1 1"></feGaussianBlur><feOffset color-interpolation-filters="linearRGB" dx="0" dy="-2" in="shadowBlurInner1" result="shadowOffsetInner1"></feOffset><feComposite color-interpolation-filters="linearRGB" in="shadowOffsetInner1" in2="SourceAlpha" k1="0" k2="-1" k3="1" k4="0" operator="arithmetic" result="shadowInnerInner1"></feComposite><feColorMatrix color-interpolation-filters="linearRGB" in="shadowInnerInner1" result="shadowMatrixInner1" type="matrix" values="0 0 0 0 0.729025136 0 0 0 0 0.0176144031 0 0 0 0 0.0176144031 0 0 0 0.861833479 0"></feColorMatrix><feOffset color-interpolation-filters="linearRGB" dx="0" dy="1" in="SourceAlpha" result="shadowOffsetInner2"></feOffset><feComposite color-interpolation-filters="linearRGB" in="shadowOffsetInner2" in2="SourceAlpha" k1="0" k2="-1" k3="1" k4="0" operator="arithmetic" result="shadowInnerInner2"></feComposite><feColorMatrix color-interpolation-filters="linearRGB" in="shadowInnerInner2" result="shadowMatrixInner2" type="matrix" values="0 0 0 0 1 0 0 0 0 1 0 0 0 0 1 0 0 0 0.984019886 0"></feColorMatrix><feMerge color-interpolation-filters="linearRGB" result="result8"><feMergeNode in="shadowMatrixInner1"></feMergeNode><feMergeNode in="shadowMatrixInner2"></feMergeNode></feMerge></filter><filter height="2.409" id="filter-44" node-id="210" width="3.583" x="-1.292" y="-0.523"><feMorphology color-interpolation-filters="linearRGB" in="SourceAlpha" operator="dilate" radius="1 1" result="shadowSpreadOuter1"></feMorphology><feOffset color-interpolation-filters="linearRGB" dx="0" dy="4" in="shadowSpreadOuter1" result="shadowOffsetOuter1"></feOffset><feGaussianBlur color-interpolation-filters="linearRGB" in="shadowOffsetOuter1" result="shadowBlurOuter1" stdDeviation="3.5 3.5"></feGaussianBlur><feColorMatrix color-interpolation-filters="linearRGB" in="shadowBlurOuter1" result="result4" type="matrix" values="0 0 0 0 1 0 0 0 0 1 0 0 0 0 1 0 0 0 0.252622378 0"></feColorMatrix></filter><filter height="2" id="filter-45" node-id="215" width="2.833" x="-0.917" y="-0.318"><feGaussianBlur color-interpolation-filters="linearRGB" in="SourceAlpha" result="shadowBlurInner1" stdDeviation="1 1"></feGaussianBlur><feOffset color-interpolation-filters="linearRGB" dx="0" dy="-2" in="shadowBlurInner1" result="shadowOffsetInner1"></feOffset><feComposite color-interpolation-filters="linearRGB" in="shadowOffsetInner1" in2="SourceAlpha" k1="0" k2="-1" k3="1" k4="0" operator="arithmetic" result="shadowInnerInner1"></feComposite><feColorMatrix color-interpolation-filters="linearRGB" in="shadowInnerInner1" result="shadowMatrixInner1" type="matrix" values="0 0 0 0 0.729025136 0 0 0 0 0.0176144031 0 0 0 0 0.0176144031 0 0 0 0.861833479 0"></feColorMatrix><feOffset color-interpolation-filters="linearRGB" dx="0" dy="1" in="SourceAlpha" result="shadowOffsetInner2"></feOffset><feComposite color-interpolation-filters="linearRGB" in="shadowOffsetInner2" in2="SourceAlpha" k1="0" k2="-1" k3="1" k4="0" operator="arithmetic" result="shadowInnerInner2"></feComposite><feColorMatrix color-interpolation-filters="linearRGB" in="shadowInnerInner2" result="shadowMatrixInner2" type="matrix" values="0 0 0 0 1 0 0 0 0 1 0 0 0 0 1 0 0 0 0.984019886 0"></feColorMatrix><feMerge color-interpolation-filters="linearRGB" result="result8"><feMergeNode in="shadowMatrixInner1"></feMergeNode><feMergeNode in="shadowMatrixInner2"></feMergeNode></feMerge></filter></defs><path d="M 0.00 0.00 L 500.00 0.00 L 500.00 500.00 L 0.00 500.00 Z" fill="#ffffff" fill-opacity="0" fill-rule="nonzero" node-id="713" stroke="none" target-height="500" target-width="500" target-x="0" target-y="0"></path><g node-id="941"><path d="M 300.18 350.58 L 298.29 355.71 L 295.94 360.50 L 293.12 365.00 L 289.81 369.23 L 286.11 373.11 L 282.03 376.68 L 277.55 379.95 L 272.64 382.92 L 267.54 385.47 L 262.14 387.68 L 256.41 389.54 L 250.34 391.05 L 244.24 392.13 L 237.94 392.82 L 231.41 393.11 L 224.64 392.98 L 217.95 392.44 L 211.15 391.46 L 204.25 390.02 L 197.20 388.12 L 190.30 385.76 L 183.77 383.09 L 177.59 380.10 L 171.74 376.81 L 166.06 373.13 L 160.80 369.24 L 155.96 365.14 L 151.51 360.83 L 147.32 356.19 L 143.62 351.44 L 140.37 346.59 L 137.57 341.63 L 135.16 336.42 L 133.27 331.20 L 131.89 325.96 L 130.99 320.67 L 130.61 315.32 L 130.79 310.01 L 131.52 304.72 L 132.82 299.42 L 134.71 294.29 L 137.06 289.50 L 139.88 285.00 L 143.19 280.77 L 146.89 276.89 L 150.97 273.32 L 155.45 270.05 L 160.36 267.08 L 165.46 264.53 L 170.86 262.32 L 176.59 260.46 L 182.66 258.95 L 188.76 257.87 L 195.06 257.18 L 201.59 256.89 L 208.36 257.02 L 215.05 257.56 L 221.85 258.54 L 228.75 259.98 L 235.80 261.88 L 242.70 264.24 L 249.23 266.91 L 255.41 269.90 L 261.26 273.19 L 266.94 276.87 L 272.20 280.76 L 277.04 284.86 L 281.49 289.17 L 285.68 293.81 L 289.38 298.56 L 292.63 303.41 L 295.43 308.37 L 297.84 313.58 L 299.73 318.80 L 301.11 324.04 L 302.01 329.33 L 302.39 334.68 L 302.21 339.99 L 301.48 345.28 L 300.18 350.58 Z" fill="#ff8e74" fill-opacity="0.69790757" fill-rule="evenodd" filter="url(#filter-1)" group-id="1" id="椭圆形备份-2" node-id="228" stroke="none" target-height="136.21588" target-width="171.7805" target-x="130.60979" target-y="256.8921"></path></g><g node-id="942"><g node-id="957"><path d="M 261.07 180.65 L 266.41 176.83 L 270.91 172.93 L 274.67 168.95 L 277.75 164.89 L 280.21 160.72 L 282.08 156.44 L 283.40 152.00 L 284.17 147.38 L 284.38 142.70 L 284.01 138.09 L 283.07 133.51 L 281.53 128.93 L 279.37 124.31 L 276.52 119.64 L 272.92 114.89 L 268.49 110.04 L 263.15 113.86 L 258.64 117.76 L 254.88 121.74 L 251.80 125.80 L 249.35 129.96 L 247.47 134.25 L 246.16 138.69 L 245.39 143.31 L 245.18 147.98 L 245.54 152.60 L 246.49 157.18 L 248.02 161.76 L 250.19 166.38 L 253.04 171.05 L 256.64 175.80 L 261.07 180.65 Z" fill="#000000" fill-rule="evenodd" filter="url(#filter-4)" group-id="2,17" node-id="722" stroke="none" target-height="70.611046" target-width="39.19951" target-x="245.17873" target-y="110.03831"></path></g><g node-id="958"><path d="M 261.07 180.65 L 266.41 176.83 L 270.91 172.93 L 274.67 168.95 L 277.75 164.89 L 280.21 160.72 L 282.08 156.44 L 283.40 152.00 L 284.17 147.38 L 284.38 142.70 L 284.01 138.09 L 283.07 133.51 L 281.53 128.93 L 279.37 124.31 L 276.52 119.64 L 272.92 114.89 L 268.49 110.04 L 263.15 113.86 L 258.64 117.76 L 254.88 121.74 L 251.80 125.80 L 249.35 129.96 L 247.47 134.25 L 246.16 138.69 L 245.39 143.31 L 245.18 147.98 L 245.54 152.60 L 246.49 157.18 L 248.02 161.76 L 250.19 166.38 L 253.04 171.05 L 256.64 175.80 L 261.07 180.65 Z" fill="none" group-id="2,18" node-id="727" stroke="none" target-height="70.611046" target-width="39.19951" target-x="245.17873" target-y="110.03831"></path></g><path d="M 261.07 180.65 L 266.41 176.83 L 270.91 172.93 L 274.67 168.95 L 277.75 164.89 L 280.21 160.72 L 282.08 156.44 L 283.40 152.00 L 284.17 147.38 L 284.38 142.70 L 284.01 138.09 L 283.07 133.51 L 281.53 128.93 L 279.37 124.31 L 276.52 119.64 L 272.92 114.89 L 268.49 110.04 L 263.15 113.86 L 258.64 117.76 L 254.88 121.74 L 251.80 125.80 L 249.35 129.96 L 247.47 134.25 L 246.16 138.69 L 245.39 143.31 L 245.18 147.98 L 245.54 152.60 L 246.49 157.18 L 248.02 161.76 L 250.19 166.38 L 253.04 171.05 L 256.64 175.80 L 261.07 180.65 Z" fill="#000000" fill-rule="evenodd" filter="url(#filter-5)" group-id="2,19" node-id="732" stroke="none" target-height="70.611046" target-width="39.19951" target-x="245.17873" target-y="110.03831"></path></g><g node-id="943"><g node-id="960"><path d="M 217.64 187.70 L 218.94 181.26 L 219.58 175.33 L 219.62 169.86 L 219.10 164.79 L 218.05 160.07 L 216.50 155.66 L 214.44 151.51 L 211.85 147.61 L 208.81 144.05 L 205.40 140.92 L 201.58 138.21 L 197.33 135.91 L 192.60 134.01 L 187.33 132.54 L 181.46 131.52 L 174.91 130.99 L 173.62 137.43 L 172.98 143.35 L 172.94 148.83 L 173.46 153.90 L 174.50 158.62 L 176.06 163.03 L 178.12 167.18 L 180.71 171.08 L 183.75 174.64 L 187.16 177.77 L 190.97 180.47 L 195.22 182.78 L 199.95 184.68 L 205.23 186.15 L 211.10 187.17 L 217.64 187.70 Z" fill="#000000" fill-rule="evenodd" filter="url(#filter-7)" group-id="3,20" node-id="739" stroke="none" target-height="56.70311" target-width="46.674072" target-x="172.9415" target-y="130.99226"></path></g><g node-id="961"><path d="M 217.64 187.70 L 218.94 181.26 L 219.58 175.33 L 219.62 169.86 L 219.10 164.79 L 218.05 160.07 L 216.50 155.66 L 214.44 151.51 L 211.85 147.61 L 208.81 144.05 L 205.40 140.92 L 201.58 138.21 L 197.33 135.91 L 192.60 134.01 L 187.33 132.54 L 181.46 131.52 L 174.91 130.99 L 173.62 137.43 L 172.98 143.35 L 172.94 148.83 L 173.46 153.90 L 174.50 158.62 L 176.06 163.03 L 178.12 167.18 L 180.71 171.08 L 183.75 174.64 L 187.16 177.77 L 190.97 180.47 L 195.22 182.78 L 199.95 184.68 L 205.23 186.15 L 211.10 187.17 L 217.64 187.70 Z" fill="url(#linearGradient-2)" fill-rule="evenodd" group-id="3,21" node-id="744" stroke="none" target-height="56.70311" target-width="46.674072" target-x="172.9415" target-y="130.99226"></path></g><path d="M 217.64 187.70 L 218.94 181.26 L 219.58 175.33 L 219.62 169.86 L 219.10 164.79 L 218.05 160.07 L 216.50 155.66 L 214.44 151.51 L 211.85 147.61 L 208.81 144.05 L 205.40 140.92 L 201.58 138.21 L 197.33 135.91 L 192.60 134.01 L 187.33 132.54 L 181.46 131.52 L 174.91 130.99 L 173.62 137.43 L 172.98 143.35 L 172.94 148.83 L 173.46 153.90 L 174.50 158.62 L 176.06 163.03 L 178.12 167.18 L 180.71 171.08 L 183.75 174.64 L 187.16 177.77 L 190.97 180.47 L 195.22 182.78 L 199.95 184.68 L 205.23 186.15 L 211.10 187.17 L 217.64 187.70 Z" fill="#000000" fill-rule="evenodd" filter="url(#filter-8)" group-id="3,22" node-id="749" stroke="none" target-height="56.70311" target-width="46.674072" target-x="172.9415" target-y="130.99226"></path></g><g node-id="944"><g node-id="963"><path d="M 234.83 184.91 L 239.00 179.83 L 242.34 174.90 L 244.95 170.09 L 246.87 165.36 L 248.16 160.71 L 248.87 156.08 L 248.99 151.46 L 248.54 146.79 L 247.53 142.22 L 245.98 137.86 L 243.88 133.68 L 241.21 129.65 L 237.93 125.75 L 233.96 121.98 L 229.26 118.32 L 223.73 114.78 L 219.56 119.85 L 216.21 124.79 L 213.61 129.60 L 211.69 134.32 L 210.39 138.98 L 209.69 143.61 L 209.57 148.23 L 210.02 152.89 L 211.03 157.47 L 212.58 161.83 L 214.67 166.01 L 217.34 170.04 L 220.63 173.94 L 224.59 177.71 L 229.30 181.37 L 234.83 184.91 Z" fill="#000000" fill-rule="evenodd" filter="url(#filter-11)" group-id="4,23" node-id="756" stroke="none" target-height="70.125854" target-width="39.422256" target-x="209.56741" target-y="114.7809"></path></g><g node-id="964"><path d="M 234.83 184.91 L 239.00 179.83 L 242.34 174.90 L 244.95 170.09 L 246.87 165.36 L 248.16 160.71 L 248.87 156.08 L 248.99 151.46 L 248.54 146.79 L 247.53 142.22 L 245.98 137.86 L 243.88 133.68 L 241.21 129.65 L 237.93 125.75 L 233.96 121.98 L 229.26 118.32 L 223.73 114.78 L 219.56 119.85 L 216.21 124.79 L 213.61 129.60 L 211.69 134.32 L 210.39 138.98 L 209.69 143.61 L 209.57 148.23 L 210.02 152.89 L 211.03 157.47 L 212.58 161.83 L 214.67 166.01 L 217.34 170.04 L 220.63 173.94 L 224.59 177.71 L 229.30 181.37 L 234.83 184.91 Z" fill="none" group-id="4,24" node-id="761" stroke="none" target-height="70.125854" target-width="39.422256" target-x="209.56741" target-y="114.7809"></path></g><path d="M 234.83 184.91 L 239.00 179.83 L 242.34 174.90 L 244.95 170.09 L 246.87 165.36 L 248.16 160.71 L 248.87 156.08 L 248.99 151.46 L 248.54 146.79 L 247.53 142.22 L 245.98 137.86 L 243.88 133.68 L 241.21 129.65 L 237.93 125.75 L 233.96 121.98 L 229.26 118.32 L 223.73 114.78 L 219.56 119.85 L 216.21 124.79 L 213.61 129.60 L 211.69 134.32 L 210.39 138.98 L 209.69 143.61 L 209.57 148.23 L 210.02 152.89 L 211.03 157.47 L 212.58 161.83 L 214.67 166.01 L 217.34 170.04 L 220.63 173.94 L 224.59 177.71 L 229.30 181.37 L 234.83 184.91 Z" fill="#000000" fill-rule="evenodd" filter="url(#filter-12)" group-id="4,25" node-id="766" stroke="none" target-height="70.125854" target-width="39.422256" target-x="209.56741" target-y="114.7809"></path></g><g node-id="945"><g node-id="966"><path d="M 196.00 220.22 L 192.76 214.52 L 189.35 209.62 L 185.79 205.47 L 182.07 201.98 L 178.19 199.10 L 174.12 196.79 L 169.85 195.02 L 165.33 193.77 L 160.70 193.08 L 156.08 192.96 L 151.42 193.41 L 146.70 194.46 L 141.89 196.14 L 136.94 198.48 L 131.84 201.57 L 126.55 205.46 L 129.80 211.17 L 133.20 216.06 L 136.77 220.22 L 140.49 223.71 L 144.37 226.58 L 148.44 228.89 L 152.71 230.67 L 157.22 231.92 L 161.86 232.61 L 166.48 232.73 L 171.14 232.27 L 175.86 231.22 L 180.67 229.55 L 185.62 227.20 L 190.72 224.12 L 196.00 220.22 Z" fill="#000000" fill-rule="evenodd" filter="url(#filter-14)" group-id="5,26" node-id="773" stroke="none" target-height="39.772797" target-width="69.44846" target-x="126.55428" target-y="192.95743"></path></g><g node-id="967"><path d="M 196.00 220.22 L 192.76 214.52 L 189.35 209.62 L 185.79 205.47 L 182.07 201.98 L 178.19 199.10 L 174.12 196.79 L 169.85 195.02 L 165.33 193.77 L 160.70 193.08 L 156.08 192.96 L 151.42 193.41 L 146.70 194.46 L 141.89 196.14 L 136.94 198.48 L 131.84 201.57 L 126.55 205.46 L 129.80 211.17 L 133.20 216.06 L 136.77 220.22 L 140.49 223.71 L 144.37 226.58 L 148.44 228.89 L 152.71 230.67 L 157.22 231.92 L 161.86 232.61 L 166.48 232.73 L 171.14 232.27 L 175.86 231.22 L 180.67 229.55 L 185.62 227.20 L 190.72 224.12 L 196.00 220.22 Z" fill="url(#linearGradient-2)" fill-rule="evenodd" group-id="5,27" node-id="778" stroke="none" target-height="39.772797" target-width="69.44846" target-x="126.55428" target-y="192.95743"></path></g><path d="M 196.00 220.22 L 192.76 214.52 L 189.35 209.62 L 185.79 205.47 L 182.07 201.98 L 178.19 199.10 L 174.12 196.79 L 169.85 195.02 L 165.33 193.77 L 160.70 193.08 L 156.08 192.96 L 151.42 193.41 L 146.70 194.46 L 141.89 196.14 L 136.94 198.48 L 131.84 201.57 L 126.55 205.46 L 129.80 211.17 L 133.20 216.06 L 136.77 220.22 L 140.49 223.71 L 144.37 226.58 L 148.44 228.89 L 152.71 230.67 L 157.22 231.92 L 161.86 232.61 L 166.48 232.73 L 171.14 232.27 L 175.86 231.22 L 180.67 229.55 L 185.62 227.20 L 190.72 224.12 L 196.00 220.22 Z" fill="#000000" fill-rule="evenodd" filter="url(#filter-15)" group-id="5,28" node-id="783" stroke="none" target-height="39.772797" target-width="69.44846" target-x="126.55428" target-y="192.95743"></path></g><g node-id="946"><g node-id="969"><path d="M 210.02 201.59 L 208.70 195.16 L 206.97 189.46 L 204.87 184.41 L 202.41 179.94 L 199.61 176.00 L 196.45 172.55 L 192.94 169.54 L 189.03 166.96 L 184.84 164.86 L 180.47 163.32 L 175.91 162.32 L 171.09 161.86 L 166.00 161.96 L 160.57 162.67 L 154.76 164.02 L 148.53 166.09 L 149.85 172.53 L 151.58 178.23 L 153.69 183.28 L 156.15 187.75 L 158.95 191.69 L 162.10 195.14 L 165.62 198.15 L 169.53 200.73 L 173.72 202.82 L 178.08 204.36 L 182.65 205.37 L 187.46 205.83 L 192.56 205.73 L 197.99 205.02 L 203.79 203.67 L 210.02 201.59 Z" fill="#000000" fill-rule="evenodd" filter="url(#filter-17)" group-id="6,29" node-id="790" stroke="none" target-height="43.969727" target-width="61.487823" target-x="148.53459" target-y="161.85898"></path></g><g node-id="970"><path d="M 210.02 201.59 L 208.70 195.16 L 206.97 189.46 L 204.87 184.41 L 202.41 179.94 L 199.61 176.00 L 196.45 172.55 L 192.94 169.54 L 189.03 166.96 L 184.84 164.86 L 180.47 163.32 L 175.91 162.32 L 171.09 161.86 L 166.00 161.96 L 160.57 162.67 L 154.76 164.02 L 148.53 166.09 L 149.85 172.53 L 151.58 178.23 L 153.69 183.28 L 156.15 187.75 L 158.95 191.69 L 162.10 195.14 L 165.62 198.15 L 169.53 200.73 L 173.72 202.82 L 178.08 204.36 L 182.65 205.37 L 187.46 205.83 L 192.56 205.73 L 197.99 205.02 L 203.79 203.67 L 210.02 201.59 Z" fill="url(#linearGradient-9)" fill-rule="evenodd" group-id="6,30" node-id="795" stroke="none" target-height="43.969727" target-width="61.487823" target-x="148.53459" target-y="161.85898"></path></g><path d="M 210.02 201.59 L 208.70 195.16 L 206.97 189.46 L 204.87 184.41 L 202.41 179.94 L 199.61 176.00 L 196.45 172.55 L 192.94 169.54 L 189.03 166.96 L 184.84 164.86 L 180.47 163.32 L 175.91 162.32 L 171.09 161.86 L 166.00 161.96 L 160.57 162.67 L 154.76 164.02 L 148.53 166.09 L 149.85 172.53 L 151.58 178.23 L 153.69 183.28 L 156.15 187.75 L 158.95 191.69 L 162.10 195.14 L 165.62 198.15 L 169.53 200.73 L 173.72 202.82 L 178.08 204.36 L 182.65 205.37 L 187.46 205.83 L 192.56 205.73 L 197.99 205.02 L 203.79 203.67 L 210.02 201.59 Z" fill="#000000" fill-rule="evenodd" filter="url(#filter-18)" group-id="6,31" node-id="800" stroke="none" target-height="43.969727" target-width="61.487823" target-x="148.53459" target-y="161.85898"></path></g><g node-id="947"><g node-id="972"><path d="M 329.66 359.67 L 334.15 356.55 L 338.37 353.02 L 342.35 349.06 L 346.08 344.64 L 349.44 339.98 L 352.55 334.98 L 355.41 329.62 L 358.02 323.87 L 360.95 316.03 L 363.39 307.74 L 365.34 298.95 L 366.73 290.05 L 367.59 280.90 L 367.92 271.46 L 367.71 262.02 L 366.95 252.53 L 365.63 242.99 L 363.76 233.53 L 361.33 224.25 L 358.34 215.11 L 355.71 208.39 L 352.76 201.87 L 349.50 195.55 L 345.91 189.42 L 341.40 182.69 L 336.85 176.70 L 332.26 171.41 L 327.64 166.76 L 322.97 162.71 L 317.84 158.89 L 312.68 155.63 L 307.48 152.88 L 302.23 150.63 L 296.90 148.86 L 291.41 147.51 L 285.85 146.57 L 280.23 146.04 L 274.52 145.92 L 268.71 146.23 L 261.55 147.13 L 254.28 148.57 L 246.90 150.57 L 239.38 153.16 L 232.09 156.16 L 224.75 159.62 L 217.36 163.57 L 209.90 168.01 L 202.63 172.77 L 195.84 177.69 L 189.51 182.77 L 183.62 188.00 L 178.00 193.62 L 172.96 199.38 L 168.48 205.28 L 164.54 211.33 L 161.71 216.41 L 159.31 221.60 L 157.32 226.88 L 155.74 232.28 L 154.54 237.82 L 153.80 243.38 L 153.52 249.09 L 153.71 254.97 L 154.38 261.03 L 155.57 267.32 L 157.16 273.29 L 159.31 279.48 L 162.06 285.93 L 165.44 292.64 L 169.52 299.65 L 173.45 305.56 L 177.70 311.26 L 182.27 316.77 L 187.16 322.08 L 194.05 328.77 L 201.34 335.03 L 209.01 340.85 L 217.01 346.22 L 225.21 351.06 L 233.60 355.39 L 242.23 359.23 L 250.83 362.47 L 259.44 365.12 L 268.19 367.22 L 276.72 368.66 L 285.05 369.47 L 291.36 369.65 L 297.43 369.43 L 303.29 368.82 L 308.95 367.84 L 314.56 366.42 L 319.86 364.59 L 324.89 362.34 L 329.66 359.67 Z" fill="url(#linearGradient-19)" fill-rule="evenodd" group-id="7,32" node-id="807" stroke="none" target-height="223.72198" target-width="214.40562" target-x="153.51778" target-y="145.92462"></path></g><path d="M 329.66 359.67 L 334.15 356.55 L 338.37 353.02 L 342.35 349.06 L 346.08 344.64 L 349.44 339.98 L 352.55 334.98 L 355.41 329.62 L 358.02 323.87 L 360.95 316.03 L 363.39 307.74 L 365.34 298.95 L 366.73 290.05 L 367.59 280.90 L 367.92 271.46 L 367.71 262.02 L 366.95 252.53 L 365.63 242.99 L 363.76 233.53 L 361.33 224.25 L 358.34 215.11 L 355.71 208.39 L 352.76 201.87 L 349.50 195.55 L 345.91 189.42 L 341.40 182.69 L 336.85 176.70 L 332.26 171.41 L 327.64 166.76 L 322.97 162.71 L 317.84 158.89 L 312.68 155.63 L 307.48 152.88 L 302.23 150.63 L 296.90 148.86 L 291.41 147.51 L 285.85 146.57 L 280.23 146.04 L 274.52 145.92 L 268.71 146.23 L 261.55 147.13 L 254.28 148.57 L 246.90 150.57 L 239.38 153.16 L 232.09 156.16 L 224.75 159.62 L 217.36 163.57 L 209.90 168.01 L 202.63 172.77 L 195.84 177.69 L 189.51 182.77 L 183.62 188.00 L 178.00 193.62 L 172.96 199.38 L 168.48 205.28 L 164.54 211.33 L 161.71 216.41 L 159.31 221.60 L 157.32 226.88 L 155.74 232.28 L 154.54 237.82 L 153.80 243.38 L 153.52 249.09 L 153.71 254.97 L 154.38 261.03 L 155.57 267.32 L 157.16 273.29 L 159.31 279.48 L 162.06 285.93 L 165.44 292.64 L 169.52 299.65 L 173.45 305.56 L 177.70 311.26 L 182.27 316.77 L 187.16 322.08 L 194.05 328.77 L 201.34 335.03 L 209.01 340.85 L 217.01 346.22 L 225.21 351.06 L 233.60 355.39 L 242.23 359.23 L 250.83 362.47 L 259.44 365.12 L 268.19 367.22 L 276.72 368.66 L 285.05 369.47 L 291.36 369.65 L 297.43 369.43 L 303.29 368.82 L 308.95 367.84 L 314.56 366.42 L 319.86 364.59 L 324.89 362.34 L 329.66 359.67 Z" fill="#000000" fill-rule="evenodd" filter="url(#filter-21)" group-id="7,33" node-id="812" stroke="none" target-height="223.72198" target-width="214.40562" target-x="153.51778" target-y="145.92462"></path></g><g node-id="948"><path d="M 308.32 348.82 L 310.38 348.95 L 312.64 348.73 L 315.14 348.11 L 317.93 347.04 L 321.38 345.24 L 325.06 342.78 L 328.98 339.59 L 332.61 336.09 L 336.23 332.00 L 339.84 327.28 L 343.09 322.32 L 346.11 316.88 L 348.88 310.93 L 351.19 304.79 L 353.06 298.27 L 354.46 291.33 L 355.27 284.30 L 355.51 277.52 L 355.21 270.97 L 354.41 264.45 L 353.23 258.34 L 351.66 252.62 L 349.69 247.02 L 347.51 242.01 L 345.14 237.56 L 342.39 233.31 L 339.66 229.84 L 336.93 227.06 L 334.61 225.18 L 332.42 223.83 L 330.34 222.91 L 328.34 222.40 L 326.33 222.31 L 324.47 222.62 L 322.73 223.33 L 321.07 224.46 L 319.46 226.08 L 317.82 228.32 L 316.20 231.15 L 314.61 234.66 L 313.07 238.96 L 311.42 244.63 L 309.81 251.21 L 308.26 258.79 L 306.19 270.41 L 304.09 283.35 L 302.08 296.32 L 300.46 308.00 L 299.60 315.69 L 299.10 322.45 L 298.91 328.35 L 299.05 332.92 L 299.47 336.75 L 300.14 339.94 L 301.01 342.57 L 302.04 344.61 L 303.27 346.20 L 304.71 347.41 L 306.37 348.28 L 308.32 348.82 Z" fill="#c60000" fill-opacity="0.78660405" fill-rule="evenodd" filter="url(#filter-22)" group-id="8" id="椭圆形" node-id="252" stroke="none" target-height="126.63823" target-width="56.592346" target-x="298.91467" target-y="222.31026"></path></g><g node-id="949"><path d="M 278.85 148.61 L 279.63 150.49 L 279.91 152.67 L 279.60 155.27 L 278.58 158.42 L 276.65 162.29 L 273.72 166.76 L 269.58 171.91 L 265.10 176.72 L 259.73 181.86 L 253.36 187.35 L 246.77 192.51 L 239.49 197.73 L 231.46 202.98 L 223.22 207.89 L 215.34 212.16 L 207.81 215.82 L 200.09 219.13 L 193.11 221.71 L 186.83 223.62 L 180.38 225.08 L 175.08 225.76 L 170.75 225.80 L 167.48 225.33 L 165.01 224.47 L 163.16 223.27 L 161.82 221.74 L 161.03 219.86 L 160.76 217.68 L 161.07 215.07 L 162.08 211.93 L 164.02 208.06 L 166.95 203.59 L 171.09 198.44 L 175.56 193.62 L 180.93 188.48 L 187.30 183.00 L 193.89 177.83 L 201.18 172.62 L 209.20 167.36 L 217.45 162.45 L 225.33 158.19 L 232.86 154.53 L 240.58 151.21 L 247.55 148.64 L 253.84 146.73 L 260.29 145.27 L 265.59 144.59 L 269.92 144.55 L 273.19 145.01 L 275.66 145.88 L 277.51 147.08 L 278.85 148.61 Z" fill="#ffffff" fill-opacity="0.3454436" fill-rule="evenodd" filter="url(#filter-23)" group-id="9" id="椭圆形" node-id="253" stroke="none" target-height="81.2462" target-width="119.145966" target-x="160.75983" target-y="144.55083"></path></g><g node-id="950"><g node-id="974"><path d="M 323.97 229.34 L 325.27 232.04 L 326.04 234.56 L 326.34 237.04 L 326.15 239.06 L 325.73 240.27 L 325.11 241.19 L 324.28 241.87 L 323.28 242.25 L 322.17 242.33 L 320.90 242.08 L 319.06 241.24 L 317.07 239.74 L 315.27 237.82 L 313.58 235.34 L 312.28 232.65 L 311.52 230.13 L 311.21 227.65 L 311.41 225.63 L 311.83 224.42 L 312.45 223.50 L 313.28 222.82 L 314.28 222.44 L 315.39 222.36 L 316.65 222.60 L 318.50 223.45 L 320.49 224.95 L 322.29 226.87 L 323.97 229.34 Z" fill="#000000" fill-rule="evenodd" filter="url(#filter-26)" group-id="10,34" node-id="827" stroke="none" target-height="19.96611" target-width="15.129852" target-x="311.2136" target-y="222.36078"></path></g><g node-id="975"><path d="M 323.97 229.34 L 325.27 232.04 L 326.04 234.56 L 326.34 237.04 L 326.15 239.06 L 325.73 240.27 L 325.11 241.19 L 324.28 241.87 L 323.28 242.25 L 322.17 242.33 L 320.90 242.08 L 319.06 241.24 L 317.07 239.74 L 315.27 237.82 L 313.58 235.34 L 312.28 232.65 L 311.52 230.13 L 311.21 227.65 L 311.41 225.63 L 311.83 224.42 L 312.45 223.50 L 313.28 222.82 L 314.28 222.44 L 315.39 222.36 L 316.65 222.60 L 318.50 223.45 L 320.49 224.95 L 322.29 226.87 L 323.97 229.34 Z" fill="url(#linearGradient-24)" fill-rule="evenodd" group-id="10,35" node-id="832" stroke="none" target-height="19.96611" target-width="15.129852" target-x="311.2136" target-y="222.36078"></path></g><path d="M 323.97 229.34 L 325.27 232.04 L 326.04 234.56 L 326.34 237.04 L 326.15 239.06 L 325.73 240.27 L 325.11 241.19 L 324.28 241.87 L 323.28 242.25 L 322.17 242.33 L 320.90 242.08 L 319.06 241.24 L 317.07 239.74 L 315.27 237.82 L 313.58 235.34 L 312.28 232.65 L 311.52 230.13 L 311.21 227.65 L 311.41 225.63 L 311.83 224.42 L 312.45 223.50 L 313.28 222.82 L 314.28 222.44 L 315.39 222.36 L 316.65 222.60 L 318.50 223.45 L 320.49 224.95 L 322.29 226.87 L 323.97 229.34 Z" fill="#000000" fill-rule="evenodd" filter="url(#filter-27)" group-id="10,36" node-id="837" stroke="none" target-height="19.96611" target-width="15.129852" target-x="311.2136" target-y="222.36078"></path></g><g node-id="951"><g node-id="977"><path d="M 328.97 279.34 L 330.27 282.04 L 331.04 284.56 L 331.34 287.04 L 331.15 289.06 L 330.73 290.27 L 330.11 291.19 L 329.28 291.87 L 328.28 292.25 L 327.17 292.33 L 325.90 292.08 L 324.06 291.24 L 322.07 289.74 L 320.27 287.82 L 318.58 285.34 L 317.28 282.65 L 316.52 280.13 L 316.21 277.65 L 316.41 275.63 L 316.83 274.42 L 317.45 273.50 L 318.28 272.82 L 319.28 272.44 L 320.39 272.36 L 321.65 272.60 L 323.50 273.45 L 325.49 274.95 L 327.29 276.87 L 328.97 279.34 Z" fill="#000000" fill-rule="evenodd" filter="url(#filter-29)" group-id="11,37" node-id="844" stroke="none" target-height="19.966095" target-width="15.129852" target-x="316.21353" target-y="272.36078"></path></g><g node-id="978"><path d="M 328.97 279.34 L 330.27 282.04 L 331.04 284.56 L 331.34 287.04 L 331.15 289.06 L 330.73 290.27 L 330.11 291.19 L 329.28 291.87 L 328.28 292.25 L 327.17 292.33 L 325.90 292.08 L 324.06 291.24 L 322.07 289.74 L 320.27 287.82 L 318.58 285.34 L 317.28 282.65 L 316.52 280.13 L 316.21 277.65 L 316.41 275.63 L 316.83 274.42 L 317.45 273.50 L 318.28 272.82 L 319.28 272.44 L 320.39 272.36 L 321.65 272.60 L 323.50 273.45 L 325.49 274.95 L 327.29 276.87 L 328.97 279.34 Z" fill="url(#linearGradient-24)" fill-rule="evenodd" group-id="11,38" node-id="849" stroke="none" target-height="19.966095" target-width="15.129852" target-x="316.21353" target-y="272.36078"></path></g><path d="M 328.97 279.34 L 330.27 282.04 L 331.04 284.56 L 331.34 287.04 L 331.15 289.06 L 330.73 290.27 L 330.11 291.19 L 329.28 291.87 L 328.28 292.25 L 327.17 292.33 L 325.90 292.08 L 324.06 291.24 L 322.07 289.74 L 320.27 287.82 L 318.58 285.34 L 317.28 282.65 L 316.52 280.13 L 316.21 277.65 L 316.41 275.63 L 316.83 274.42 L 317.45 273.50 L 318.28 272.82 L 319.28 272.44 L 320.39 272.36 L 321.65 272.60 L 323.50 273.45 L 325.49 274.95 L 327.29 276.87 L 328.97 279.34 Z" fill="#000000" fill-rule="evenodd" filter="url(#filter-30)" group-id="11,39" node-id="854" stroke="none" target-height="19.966095" target-width="15.129852" target-x="316.21353" target-y="272.36078"></path></g><g node-id="952"><g node-id="980"><path d="M 278.97 312.34 L 280.27 315.04 L 281.04 317.56 L 281.34 320.04 L 281.15 322.06 L 280.73 323.27 L 280.11 324.19 L 279.28 324.87 L 278.28 325.25 L 277.17 325.33 L 275.90 325.08 L 274.06 324.24 L 272.07 322.74 L 270.27 320.82 L 268.58 318.34 L 267.28 315.65 L 266.52 313.13 L 266.21 310.65 L 266.41 308.63 L 266.83 307.42 L 267.45 306.50 L 268.28 305.82 L 269.28 305.44 L 270.39 305.36 L 271.65 305.60 L 273.50 306.45 L 275.49 307.95 L 277.29 309.87 L 278.97 312.34 Z" fill="#000000" fill-rule="evenodd" filter="url(#filter-32)" group-id="12,40" node-id="861" stroke="none" target-height="19.966125" target-width="15.129883" target-x="266.21356" target-y="305.36078"></path></g><g node-id="981"><path d="M 278.97 312.34 L 280.27 315.04 L 281.04 317.56 L 281.34 320.04 L 281.15 322.06 L 280.73 323.27 L 280.11 324.19 L 279.28 324.87 L 278.28 325.25 L 277.17 325.33 L 275.90 325.08 L 274.06 324.24 L 272.07 322.74 L 270.27 320.82 L 268.58 318.34 L 267.28 315.65 L 266.52 313.13 L 266.21 310.65 L 266.41 308.63 L 266.83 307.42 L 267.45 306.50 L 268.28 305.82 L 269.28 305.44 L 270.39 305.36 L 271.65 305.60 L 273.50 306.45 L 275.49 307.95 L 277.29 309.87 L 278.97 312.34 Z" fill="url(#linearGradient-24)" fill-rule="evenodd" group-id="12,41" node-id="866" stroke="none" target-height="19.966125" target-width="15.129883" target-x="266.21356" target-y="305.36078"></path></g><path d="M 278.97 312.34 L 280.27 315.04 L 281.04 317.56 L 281.34 320.04 L 281.15 322.06 L 280.73 323.27 L 280.11 324.19 L 279.28 324.87 L 278.28 325.25 L 277.17 325.33 L 275.90 325.08 L 274.06 324.24 L 272.07 322.74 L 270.27 320.82 L 268.58 318.34 L 267.28 315.65 L 266.52 313.13 L 266.21 310.65 L 266.41 308.63 L 266.83 307.42 L 267.45 306.50 L 268.28 305.82 L 269.28 305.44 L 270.39 305.36 L 271.65 305.60 L 273.50 306.45 L 275.49 307.95 L 277.29 309.87 L 278.97 312.34 Z" fill="#000000" fill-rule="evenodd" filter="url(#filter-33)" group-id="12,42" node-id="871" stroke="none" target-height="19.966125" target-width="15.129883" target-x="266.21356" target-y="305.36078"></path></g><g node-id="953"><g node-id="983"><path d="M 224.97 285.34 L 226.27 288.04 L 227.04 290.56 L 227.34 293.04 L 227.15 295.06 L 226.73 296.27 L 226.11 297.19 L 225.28 297.87 L 224.28 298.25 L 223.17 298.33 L 221.90 298.08 L 220.06 297.24 L 218.07 295.74 L 216.27 293.82 L 214.58 291.34 L 213.28 288.65 L 212.52 286.13 L 212.21 283.65 L 212.41 281.63 L 212.83 280.42 L 213.45 279.50 L 214.28 278.82 L 215.28 278.44 L 216.39 278.36 L 217.65 278.60 L 219.50 279.45 L 221.49 280.95 L 223.29 282.87 L 224.97 285.34 Z" fill="#000000" fill-rule="evenodd" filter="url(#filter-35)" group-id="13,43" node-id="878" stroke="none" target-height="19.966125" target-width="15.129822" target-x="212.21362" target-y="278.36078"></path></g><g node-id="984"><path d="M 224.97 285.34 L 226.27 288.04 L 227.04 290.56 L 227.34 293.04 L 227.15 295.06 L 226.73 296.27 L 226.11 297.19 L 225.28 297.87 L 224.28 298.25 L 223.17 298.33 L 221.90 298.08 L 220.06 297.24 L 218.07 295.74 L 216.27 293.82 L 214.58 291.34 L 213.28 288.65 L 212.52 286.13 L 212.21 283.65 L 212.41 281.63 L 212.83 280.42 L 213.45 279.50 L 214.28 278.82 L 215.28 278.44 L 216.39 278.36 L 217.65 278.60 L 219.50 279.45 L 221.49 280.95 L 223.29 282.87 L 224.97 285.34 Z" fill="url(#linearGradient-24)" fill-rule="evenodd" group-id="13,44" node-id="883" stroke="none" target-height="19.966125" target-width="15.129822" target-x="212.21362" target-y="278.36078"></path></g><path d="M 224.97 285.34 L 226.27 288.04 L 227.04 290.56 L 227.34 293.04 L 227.15 295.06 L 226.73 296.27 L 226.11 297.19 L 225.28 297.87 L 224.28 298.25 L 223.17 298.33 L 221.90 298.08 L 220.06 297.24 L 218.07 295.74 L 216.27 293.82 L 214.58 291.34 L 213.28 288.65 L 212.52 286.13 L 212.21 283.65 L 212.41 281.63 L 212.83 280.42 L 213.45 279.50 L 214.28 278.82 L 215.28 278.44 L 216.39 278.36 L 217.65 278.60 L 219.50 279.45 L 221.49 280.95 L 223.29 282.87 L 224.97 285.34 Z" fill="#000000" fill-rule="evenodd" filter="url(#filter-36)" group-id="13,45" node-id="888" stroke="none" target-height="19.966125" target-width="15.129822" target-x="212.21362" target-y="278.36078"></path></g><g node-id="954"><g node-id="986"><path d="M 268.97 198.34 L 270.27 201.04 L 271.04 203.56 L 271.34 206.04 L 271.15 208.06 L 270.73 209.27 L 270.11 210.19 L 269.28 210.87 L 268.28 211.25 L 267.17 211.33 L 265.90 211.08 L 264.06 210.24 L 262.07 208.74 L 260.27 206.82 L 258.58 204.34 L 257.28 201.65 L 256.52 199.13 L 256.21 196.65 L 256.41 194.63 L 256.83 193.42 L 257.45 192.50 L 258.28 191.82 L 259.28 191.44 L 260.39 191.36 L 261.65 191.60 L 263.50 192.45 L 265.49 193.95 L 267.29 195.87 L 268.97 198.34 Z" fill="#000000" fill-rule="evenodd" filter="url(#filter-38)" group-id="14,46" node-id="895" stroke="none" target-height="19.966095" target-width="15.129822" target-x="256.2136" target-y="191.36078"></path></g><g node-id="987"><path d="M 268.97 198.34 L 270.27 201.04 L 271.04 203.56 L 271.34 206.04 L 271.15 208.06 L 270.73 209.27 L 270.11 210.19 L 269.28 210.87 L 268.28 211.25 L 267.17 211.33 L 265.90 211.08 L 264.06 210.24 L 262.07 208.74 L 260.27 206.82 L 258.58 204.34 L 257.28 201.65 L 256.52 199.13 L 256.21 196.65 L 256.41 194.63 L 256.83 193.42 L 257.45 192.50 L 258.28 191.82 L 259.28 191.44 L 260.39 191.36 L 261.65 191.60 L 263.50 192.45 L 265.49 193.95 L 267.29 195.87 L 268.97 198.34 Z" fill="url(#linearGradient-24)" fill-rule="evenodd" group-id="14,47" node-id="900" stroke="none" target-height="19.966095" target-width="15.129822" target-x="256.2136" target-y="191.36078"></path></g><path d="M 268.97 198.34 L 270.27 201.04 L 271.04 203.56 L 271.34 206.04 L 271.15 208.06 L 270.73 209.27 L 270.11 210.19 L 269.28 210.87 L 268.28 211.25 L 267.17 211.33 L 265.90 211.08 L 264.06 210.24 L 262.07 208.74 L 260.27 206.82 L 258.58 204.34 L 257.28 201.65 L 256.52 199.13 L 256.21 196.65 L 256.41 194.63 L 256.83 193.42 L 257.45 192.50 L 258.28 191.82 L 259.28 191.44 L 260.39 191.36 L 261.65 191.60 L 263.50 192.45 L 265.49 193.95 L 267.29 195.87 L 268.97 198.34 Z" fill="#000000" fill-rule="evenodd" filter="url(#filter-39)" group-id="14,48" node-id="905" stroke="none" target-height="19.966095" target-width="15.129822" target-x="256.2136" target-y="191.36078"></path></g><g node-id="955"><g node-id="989"><path d="M 220.97 229.34 L 222.27 232.04 L 223.04 234.56 L 223.34 237.04 L 223.15 239.06 L 222.73 240.27 L 222.11 241.19 L 221.28 241.87 L 220.28 242.25 L 219.17 242.33 L 217.90 242.08 L 216.06 241.24 L 214.07 239.74 L 212.27 237.82 L 210.58 235.34 L 209.28 232.65 L 208.52 230.13 L 208.21 227.65 L 208.41 225.63 L 208.83 224.42 L 209.45 223.50 L 210.28 222.82 L 211.28 222.44 L 212.39 222.36 L 213.65 222.60 L 215.50 223.45 L 217.49 224.95 L 219.29 226.87 L 220.97 229.34 Z" fill="#000000" fill-rule="evenodd" filter="url(#filter-41)" group-id="15,49" node-id="912" stroke="none" target-height="19.96611" target-width="15.129822" target-x="208.21361" target-y="222.36076"></path></g><g node-id="990"><path d="M 220.97 229.34 L 222.27 232.04 L 223.04 234.56 L 223.34 237.04 L 223.15 239.06 L 222.73 240.27 L 222.11 241.19 L 221.28 241.87 L 220.28 242.25 L 219.17 242.33 L 217.90 242.08 L 216.06 241.24 L 214.07 239.74 L 212.27 237.82 L 210.58 235.34 L 209.28 232.65 L 208.52 230.13 L 208.21 227.65 L 208.41 225.63 L 208.83 224.42 L 209.45 223.50 L 210.28 222.82 L 211.28 222.44 L 212.39 222.36 L 213.65 222.60 L 215.50 223.45 L 217.49 224.95 L 219.29 226.87 L 220.97 229.34 Z" fill="url(#linearGradient-24)" fill-rule="evenodd" group-id="15,50" node-id="917" stroke="none" target-height="19.96611" target-width="15.129822" target-x="208.21361" target-y="222.36076"></path></g><path d="M 220.97 229.34 L 222.27 232.04 L 223.04 234.56 L 223.34 237.04 L 223.15 239.06 L 222.73 240.27 L 222.11 241.19 L 221.28 241.87 L 220.28 242.25 L 219.17 242.33 L 217.90 242.08 L 216.06 241.24 L 214.07 239.74 L 212.27 237.82 L 210.58 235.34 L 209.28 232.65 L 208.52 230.13 L 208.21 227.65 L 208.41 225.63 L 208.83 224.42 L 209.45 223.50 L 210.28 222.82 L 211.28 222.44 L 212.39 222.36 L 213.65 222.60 L 215.50 223.45 L 217.49 224.95 L 219.29 226.87 L 220.97 229.34 Z" fill="#000000" fill-rule="evenodd" filter="url(#filter-42)" group-id="15,51" node-id="922" stroke="none" target-height="19.96611" target-width="15.129822" target-x="208.21361" target-y="222.36076"></path></g><g node-id="956"><g node-id="992"><path d="M 274.97 254.34 L 276.27 257.04 L 277.04 259.56 L 277.34 262.04 L 277.15 264.06 L 276.73 265.27 L 276.11 266.19 L 275.28 266.87 L 274.28 267.25 L 273.17 267.33 L 271.90 267.08 L 270.06 266.24 L 268.07 264.74 L 266.27 262.82 L 264.58 260.34 L 263.28 257.65 L 262.52 255.13 L 262.21 252.65 L 262.41 250.63 L 262.83 249.42 L 263.45 248.50 L 264.28 247.82 L 265.28 247.44 L 266.39 247.36 L 267.65 247.60 L 269.50 248.45 L 271.49 249.95 L 273.29 251.87 L 274.97 254.34 Z" fill="#000000" fill-rule="evenodd" filter="url(#filter-44)" group-id="16,52" node-id="929" stroke="none" target-height="19.96608" target-width="15.129822" target-x="262.21356" target-y="247.36076"></path></g><g node-id="993"><path d="M 274.97 254.34 L 276.27 257.04 L 277.04 259.56 L 277.34 262.04 L 277.15 264.06 L 276.73 265.27 L 276.11 266.19 L 275.28 266.87 L 274.28 267.25 L 273.17 267.33 L 271.90 267.08 L 270.06 266.24 L 268.07 264.74 L 266.27 262.82 L 264.58 260.34 L 263.28 257.65 L 262.52 255.13 L 262.21 252.65 L 262.41 250.63 L 262.83 249.42 L 263.45 248.50 L 264.28 247.82 L 265.28 247.44 L 266.39 247.36 L 267.65 247.60 L 269.50 248.45 L 271.49 249.95 L 273.29 251.87 L 274.97 254.34 Z" fill="url(#linearGradient-24)" fill-rule="evenodd" group-id="16,53" node-id="934" stroke="none" target-height="19.96608" target-width="15.129822" target-x="262.21356" target-y="247.36076"></path></g><path d="M 274.97 254.34 L 276.27 257.04 L 277.04 259.56 L 277.34 262.04 L 277.15 264.06 L 276.73 265.27 L 276.11 266.19 L 275.28 266.87 L 274.28 267.25 L 273.17 267.33 L 271.90 267.08 L 270.06 266.24 L 268.07 264.74 L 266.27 262.82 L 264.58 260.34 L 263.28 257.65 L 262.52 255.13 L 262.21 252.65 L 262.41 250.63 L 262.83 249.42 L 263.45 248.50 L 264.28 247.82 L 265.28 247.44 L 266.39 247.36 L 267.65 247.60 L 269.50 248.45 L 271.49 249.95 L 273.29 251.87 L 274.97 254.34 Z" fill="#000000" fill-rule="evenodd" filter="url(#filter-45)" group-id="16,54" node-id="939" stroke="none" target-height="19.96608" target-width="15.129822" target-x="262.21356" target-y="247.36076"></path></g></svg>